<?xml version="1.0" encoding="utf-8"?>
<!-- Generator: Adobe Illustrator 19.1.0, SVG Export Plug-In . SVG Version: 6.00 Build 0)  -->
<svg version="1.1"
	 id="svg2" inkscape:version="0.91 r" sodipodi:docname="NEUBIAS_color.svg" xmlns:rdf="http://www.w3.org/1999/02/22-rdf-syntax-ns#" xmlns:inkscape="http://www.inkscape.org/namespaces/inkscape" xmlns:cc="http://creativecommons.org/ns#" xmlns:svg="http://www.w3.org/2000/svg" xmlns:dc="http://purl.org/dc/elements/1.1/" xmlns:sodipodi="http://sodipodi.sourceforge.net/DTD/sodipodi-0.dtd"
	 xmlns="http://www.w3.org/2000/svg" xmlns:xlink="http://www.w3.org/1999/xlink" x="0px" y="0px"
	 viewBox="-794 1460.1 184.1 196.5" style="enable-background:new -794 1460.1 184.1 196.5;" xml:space="preserve">
<style type="text/css">
	.st0{fill:#969696;}
	.st1{fill:#FFE580;}
	.st2{fill:#FFB280;}
	.st3{fill:#FF8080;}
</style>
<g>
	
		<sodipodi:namedview  inkscape:window-maximized="1" inkscape:window-y="24" inkscape:window-x="0" inkscape:window-height="1416" inkscape:window-width="2560" fit-margin-bottom="5" fit-margin-right="5" inkscape:current-layer="layer1" inkscape:document-units="px" inkscape:pageshadow="2" inkscape:pageopacity="0.0" bordercolor="#666666" borderopacity="1.0" inkscape:cx="263.19738" inkscape:zoom="1.4186632" fit-margin-left="5" fit-margin-top="5" showguides="false" showgrid="false" inkscape:cy="80.234558" id="base" pagecolor="#ffffff">
		</sodipodi:namedview>
	<path id="path64302-2-3-1-3-1-9-4-8-9-9-9-1-5" inkscape:connector-curvature="0" class="st0" d="M-742.1,1502.7
		C-742.1,1502.7-742.2,1502.7-742.1,1502.7c-0.2,0-0.4,0.1-0.5,0.3l-2.6,7.4c0,0,0,0,0,0v0c0,0,0,0,0,0c0,0,0,0,0,0c0,0,0,0,0,0
		c0,0,0,0,0,0c0,0,0,0,0,0c0,0,0,0,0,0c0,0,0,0,0,0c0,0,0,0,0,0c0,0,0,0,0,0c0,0,0,0,0,0c0,0,0,0,0,0c0,0,0,0,0,0c0,0,0,0,0,0
		c0,0,0,0,0,0c0,0,0,0.1,0.1,0.1c0,0,0,0,0,0c0,0,0,0,0,0c0,0,0,0,0,0c0,0,0,0,0,0l5,4.5c0,0,0,0,0,0c0,0,0,0,0,0c0,0,0,0,0,0
		c0,0,0,0,0,0c0,0,0,0,0,0c0,0,0,0,0,0c0,0,0.1,0,0.1,0c0,0,0,0,0,0c0,0,0.1,0,0.1,0c0,0,0,0,0,0c0,0,0,0,0,0l8.3-3
		c0.2-0.1,0.4-0.3,0.3-0.6c0,0,0,0,0,0l-2.1-4.8c0,0,0,0,0,0c0,0,0,0,0,0c0,0,0,0,0,0c0,0,0,0,0,0c0,0,0,0,0,0c0,0,0,0-0.1-0.1
		c0,0,0,0,0,0c0,0,0,0,0,0c0,0,0,0,0,0c0,0,0,0,0,0l-8.6-4.1C-742,1502.8-742,1502.8-742.1,1502.7L-742.1,1502.7z M-741.9,1503.8
		l7.1,3.4l-3.8,1.1l-5.4,1.6L-741.9,1503.8z M-683.1,1504.5C-683.1,1504.5-683.1,1504.5-683.1,1504.5
		C-683.1,1504.5-683.1,1504.5-683.1,1504.5C-683.1,1504.5-683.1,1504.5-683.1,1504.5C-683.1,1504.5-683.2,1504.5-683.1,1504.5
		C-683.2,1504.5-683.2,1504.5-683.1,1504.5c-0.1,0-0.1,0-0.1,0l-7.1,1.2c-0.1,0-0.1,0-0.2,0c0,0,0,0,0,0c0,0,0,0,0,0c0,0,0,0,0,0
		c0,0,0,0,0,0c0,0,0,0,0,0c0,0,0,0,0,0l-5.8,11.1l-9.8,10.4c0,0,0,0,0,0c0,0,0,0,0,0c0,0,0,0,0,0c0,0,0,0,0,0c0,0,0,0,0,0
		c0,0,0,0,0,0c0,0,0,0,0,0c0,0,0,0,0,0c0,0,0,0,0,0c0,0,0,0,0,0c0,0,0,0,0,0c0,0,0,0.1,0,0.1c0,0,0,0,0,0c0,0,0,0,0,0v0l1.5,13
		c0,0,0,0,0,0c0,0,0,0,0,0c0,0,0,0,0,0c0,0,0,0,0,0c0,0,0,0,0,0c0,0,0,0,0,0.1l5.1,11.5c0.1,0.2,0.4,0.3,0.6,0.2c0,0,0,0,0,0l6-2.7
		l2.6,4.6l-8.8-0.3c0,0,0,0,0,0c0,0,0,0,0,0c0,0,0,0,0,0c0,0,0,0,0,0c0,0,0,0,0,0c0,0-0.1,0-0.1,0c0,0,0,0,0,0c0,0,0,0,0,0l-4.2,2.4
		c0,0,0,0,0,0c0,0,0,0,0,0c0,0,0,0,0,0c0,0,0,0,0,0c0,0,0,0,0,0c0,0,0,0,0,0c0,0,0,0,0,0c0,0,0,0,0,0l-6.6,5.5l-9.7,4.2c0,0,0,0,0,0
		c0,0,0,0,0,0c0,0,0,0,0,0l-8.1,4.1c-0.2,0.1-0.3,0.3-0.2,0.5l0.9,7.5l0.4,8.7l-14.1-4.1c0,0,0,0,0,0c0,0,0,0,0,0c0,0,0,0,0,0
		c0,0,0,0,0,0c0,0,0,0,0,0c0,0,0,0-0.1,0c0,0,0,0-0.1,0c0,0,0,0,0,0c0,0,0,0,0,0c0,0,0,0,0,0c0,0,0,0,0,0c0,0,0,0,0,0c0,0,0,0,0,0
		c0,0,0,0,0,0c0,0,0,0,0,0c0,0,0,0,0,0l-3.9,5.3c0,0,0,0.1-0.1,0.1l-3.6,9.8c0,0,0,0,0,0c0,0,0,0,0,0l0,0c0,0,0,0,0,0c0,0,0,0,0,0
		c0,0,0,0,0,0c0,0,0,0.1,0,0.1c0,0,0,0,0,0c0,0,0,0,0,0l-0.4,5.9c0,0,0,0,0,0.1c0,0,0,0.1,0,0.1c0,0,0,0,0,0c0,0,0,0,0,0
		c0,0,0,0,0,0c0,0,0,0,0,0c0,0,0,0,0,0c0,0,0,0,0,0c0,0,0,0,0,0c0,0,0,0,0,0c0,0,0,0,0,0c0,0,0,0,0.1,0.1c0,0,0,0,0,0c0,0,0,0,0,0
		c0,0,0,0,0,0c0,0,0,0,0,0l8.3,5.7c0,0,0,0,0,0c0,0,0,0,0,0c0,0,0,0,0,0c0,0,0,0,0,0c0,0,0,0,0,0c0,0,0,0,0,0s0,0,0,0c0,0,0,0,0,0
		c0,0,0,0,0.1,0c0,0,0,0,0,0c0,0,0,0,0,0c0.1,0,0.1,0,0.2,0c0,0,0,0,0,0l16.6-6.5c0,0,0,0,0,0c0,0,0,0,0,0c0,0,0,0,0,0c0,0,0,0,0,0
		c0,0,0,0,0,0c0,0,0,0,0,0l0,0l9.3-11l10.9-4.6l8.9,2.4c0,0,0,0,0.1,0l7.6,5.2l3.4,5.3l-3,5.9l-3.8,2.1c-0.2,0.1-0.3,0.4-0.2,0.6
		c0.1,0.1,0.1,0.2,0.2,0.2l6.5,2.6c0,0,0,0,0,0c0,0,0.1,0,0.1,0c0,0,0.1,0,0.1,0c0.1,0,0.2-0.1,0.2-0.1c0,0,0,0,0.1-0.1c0,0,0,0,0,0
		c0,0,0,0,0,0c0,0,0,0,0,0l2-6.5l2-2.4l3.4,1.1c0.2,0.1,0.5-0.1,0.6-0.3c0-0.1,0-0.2,0-0.3l-1.3-4c0-0.1-0.1-0.1-0.1-0.2
		c0,0,0,0,0,0l-5.8-5.4l-3.2-8.4l10.2,2.2l0.7,5c0,0.1,0,0.1,0,0.2l4,8c0,0,0,0,0,0c0,0,0,0,0,0c0,0,0,0,0,0c0,0,0,0,0,0
		c0,0,0,0,0,0c0,0,0,0,0,0c0,0,0,0,0,0c0,0,0,0,0,0l4.3,3.2c0.2,0.1,0.5,0.1,0.6-0.1l7.4-8.3c0,0,0,0,0,0c0,0,0,0,0,0c0,0,0,0,0,0
		c0,0,0,0,0,0c0,0,0,0,0,0c0,0,0,0,0,0c0,0,0,0,0,0l0,0c0,0,0,0,0,0l4.8-10c0,0,0,0,0-0.1l3.4-8.6c0,0,0,0,0,0l0,0v0l4.2-9.7
		c0-0.1,0.1-0.2,0.1-0.3l-1.5-29.4c0,0,0,0,0-0.1c0,0,0,0,0,0c0,0,0,0,0,0c0,0,0,0,0,0c0,0,0,0,0,0c0,0,0,0,0,0c0,0,0,0,0,0
		c0,0,0,0,0,0c0,0,0,0,0,0c0,0,0,0,0,0c0,0,0,0,0,0c0,0,0,0,0,0c0,0,0,0,0,0s0,0,0,0c0,0,0,0,0,0c0,0,0,0,0,0c0,0,0,0,0,0
		c0,0,0,0,0,0c0,0,0,0,0,0c0,0,0,0,0,0l0,0c0,0,0,0,0,0l-14-26.5c0,0,0,0,0,0c-0.1-0.1-0.2-0.2-0.3-0.2l-11.1-4.4c0,0,0,0,0,0
		c0,0,0,0,0,0c0,0,0,0,0,0c0,0,0,0,0,0c0,0,0,0,0,0c0,0,0,0,0,0c0,0,0,0,0,0l0,0h0l-9.9-2.2c0,0,0,0,0,0
		C-682.9,1504.5-683,1504.5-683.1,1504.5L-683.1,1504.5z M-682.5,1505.6l8.3,1.8l-6.5,5.2L-682.5,1505.6L-682.5,1505.6z
		 M-684.3,1505.6l-5.8,6.2l0.3-5.3L-684.3,1505.6z M-683.3,1505.9l1.7,7.1l-2.4-0.1l-5.7-0.3l1.3-1.4L-683.3,1505.9z M-672.1,1508.1
		l9.5,3.8l-3.4,6.9L-672.1,1508.1z M-734.8,1508.2l-2.5,3.2l-2.5,3.1l-4-3.7L-734.8,1508.2z M-673.1,1508.2l6.1,10.7l-9.3-3.3
		l1.2-2.9L-673.1,1508.2z M-733.6,1508.2l1.6,3.7l-6.4,2.3L-733.6,1508.2z M-690.8,1508.2l-0.3,4.6l-3.6,2.8L-690.8,1508.2
		L-690.8,1508.2z M-674.3,1508.7l-1.3,3l-1.5,3.5l-3.1-1.8l0.8-0.7L-674.3,1508.7z M-662,1512.6l12.1,23l-15.6-16L-662,1512.6
		L-662,1512.6z M-689.9,1513.5l4.6,0.2l3.7,0.2l-4.3,9.7L-689.9,1513.5L-689.9,1513.5z M-690.8,1513.8l1.5,3.8l2.3,5.9l-8.2-6.2
		L-690.8,1513.8z M-680.8,1514.1l3.3,1.9l-3.3,10.7v0c0,0,0,0,0,0c0,0,0,0,0,0c0,0,0,0,0,0c0,0,0,0,0,0c0,0,0,0,0,0c0,0,0,0,0,0
		c0,0,0,0,0,0c0,0,0,0,0,0c0,0,0,0,0,0c0,0,0,0,0,0c0,0,0,0,0,0c0,0,0,0,0,0c0,0,0,0,0,0c0,0,0,0,0,0c0,0,0,0,0,0c0,0,0,0,0,0l0,0
		l5.5,7.5l-1.3,5.3c0,0,0,0.1,0,0.1l-0.8,7.6l-10.3-0.7l3.9-10.8c0-0.1,0-0.1,0-0.2c0,0,0,0,0,0c0,0,0-0.1,0-0.1c0,0,0,0,0,0
		c0,0,0,0,0,0c0,0,0,0,0,0c0,0,0,0,0,0l0,0c0,0,0,0,0,0l-2.5-4l0.6-6.9L-680.8,1514.1L-680.8,1514.1z M-676.6,1516.4l9.5,3.4
		l-12.4,6.2L-676.6,1516.4L-676.6,1516.4z M-695.5,1518.2l8.4,6.3l-7.6,2L-695.5,1518.2z M-696.4,1518.3l0.8,8.4l-9.2,0.5
		L-696.4,1518.3L-696.4,1518.3z M-666.6,1520.6l-1.9,11.4l-10.8-5.1L-666.6,1520.6z M-665.7,1520.7l16.2,16.6l-18.2-5L-665.7,1520.7
		z M-686.5,1525.4l-0.5,5.8l-6.9-3.8L-686.5,1525.4L-686.5,1525.4z M-695.6,1527.6l-1.7,8.9l-7.5-8.4l5.7-0.3L-695.6,1527.6
		L-695.6,1527.6z M-694.7,1527.9l7.2,4l-7,3.8l-1.9,1L-694.7,1527.9z M-678.9,1528l9.5,4.5l-5.1,1.6L-678.9,1528z M-705.2,1529.1
		l7.4,8.3l-6.1,2.7L-705.2,1529.1z M-686.8,1532.5l1.9,3.2l-9.9,1.1L-686.8,1532.5L-686.8,1532.5z M-667.1,1533.4l18.5,5.1
		l-5.7,14.2L-667.1,1533.4L-667.1,1533.4z M-669.8,1533.6l-5.4,5.1l0.9-3.8L-669.8,1533.6L-669.8,1533.6z M-667.9,1533.8l12.8,19.4
		l-16.4-1.4l2.4-11.7L-667.9,1533.8z M-668.9,1533.9l-1.7,8.6l-1.6,7.8l-3.3-10.1l5.9-5.6L-668.9,1533.9z M-684.8,1536.6l-3.6,10
		l-1.4-1.6l-6.4-7.2L-684.8,1536.6z M-724.5,1536.7C-724.5,1536.7-724.5,1536.7-724.5,1536.7
		C-724.6,1536.7-724.6,1536.7-724.5,1536.7c-0.1,0-0.1,0-0.1,0c0,0,0,0,0,0c0,0,0,0,0,0c0,0,0,0,0,0c0,0,0,0,0,0c0,0,0,0,0,0
		c0,0,0,0,0,0c0,0,0,0,0,0c0,0,0,0,0,0c0,0,0,0,0,0c0,0,0,0,0,0c0,0,0,0,0,0c0,0,0,0,0,0v0c0,0,0,0,0,0l-2.2,8.1l-4.6,0.8
		c0,0,0,0,0,0c0,0,0,0,0,0c0,0,0,0,0,0c0,0,0,0,0,0c0,0,0,0,0,0c0,0,0,0,0,0c0,0,0,0,0,0c0,0,0,0,0,0l-5.3,4.6c0,0,0,0,0,0l0,0
		c0,0,0,0,0,0c0,0,0,0,0,0c0,0,0,0,0,0c0,0,0,0,0,0c0,0,0,0,0,0c0,0,0,0,0,0c0,0,0,0,0,0c0,0,0,0,0,0c0,0,0,0,0,0c0,0,0,0,0,0
		c0,0,0,0.1,0,0.1c0,0,0,0,0,0c0,0,0,0,0,0c0,0,0,0,0,0c0,0,0,0,0,0c0,0,0,0,0,0c0,0,0,0,0,0c0,0,0,0,0,0l0.2,6.2
		c0,0.3,0.2,0.4,0.5,0.4c0,0,0,0,0.1,0l5.8-0.9c0,0,0,0,0,0c0,0,0,0,0,0c0.1,0,0.1,0,0.2-0.1c0,0,0,0,0,0c0,0,0,0,0,0c0,0,0,0,0,0
		c0,0,0,0,0,0c0,0,0,0,0,0c0,0,0,0,0,0c0,0,0,0,0-0.1c0,0,0,0,0,0c0,0,0,0,0,0l0,0c0,0,0,0,0,0l2.5-6.8l4,3l-5.1,5.7c0,0,0,0,0,0
		c0,0,0,0,0,0c0,0,0,0,0,0c0,0,0,0,0,0c0,0,0,0,0,0c0,0,0,0,0,0c0,0,0,0,0,0l0,0c0,0,0,0,0,0l-2.5,5.2c-0.1,0.2,0,0.5,0.2,0.6
		c0.1,0.1,0.3,0.1,0.4,0l6.5-2.9l7.3,2c0.2,0.1,0.4,0,0.5-0.3l2.4-5.4c0,0,0-0.1,0-0.1c0,0,0-0.1,0-0.1c0,0,0,0,0,0c0,0,0,0,0,0
		c0,0,0,0,0,0c0,0,0,0,0,0c0,0,0,0,0,0c0,0,0,0,0,0c0,0,0,0,0,0c0,0,0,0,0,0c0,0,0,0,0,0c0,0,0,0,0,0l0,0c0,0,0,0,0,0c0,0,0,0,0,0
		l-6.8-11.7l2.4-4.2c0.1-0.2,0.1-0.5-0.1-0.6l-5.4-4c0,0,0,0-0.1,0c0,0,0,0,0,0c0,0,0,0,0,0c0,0,0,0,0,0c0,0,0,0,0,0c0,0,0,0,0,0
		C-724.3,1536.7-724.4,1536.7-724.5,1536.7C-724.4,1536.7-724.4,1536.7-724.5,1536.7L-724.5,1536.7z M-697.4,1538.1l3.5,9.9
		l-9.6-7.2l1.6-0.7L-697.4,1538.1z M-723.6,1538.4l3.9,2.9l-1.9,3.2L-723.6,1538.4z M-724.4,1538.7l2.1,6.5l-3.8-0.1L-724.4,1538.7
		L-724.4,1538.7z M-695.9,1539.5l6.9,7.7l-3.7,1.4L-695.9,1539.5z M-648.3,1540.3l1.3,25.5l-6.6-12.1L-648.3,1540.3z M-703.2,1542.1
		l9.5,7.1l-5.2,2.4L-703.2,1542.1z M-675.8,1542.3l2.8,8.5l-3.4-2.8L-675.8,1542.3z M-726.4,1546l2.9,0l-2.6,1.3l-1.2,0.6
		L-726.4,1546L-726.4,1546z M-727.5,1546.2l-0.9,2.1l-2.1-1.5L-727.5,1546.2z M-722.3,1546.5l-0.7,2.8l-0.6,2.5l-3.7-2.8
		L-722.3,1546.5z M-721.5,1546.8l5.5,9.5l-6.9-4L-721.5,1546.8z M-731.6,1547l2.3,1.7l-6,1.5L-731.6,1547z M-686.4,1548l8.5,0.6
		l-3.2,2.9l0,0L-686.4,1548L-686.4,1548z M-688.8,1548.2l-1.1,5.5l-2.4-4.2L-688.8,1548.2z M-687.8,1548.2l5.7,3.7l-6.9,2.4
		L-687.8,1548.2z M-676.8,1548.8l1,0.8l2.5,2l-6.6-0.1L-676.8,1548.8L-676.8,1548.8z M-728.9,1549.6l-2.2,6l-4.8-4.2L-728.9,1549.6z
		 M-736.4,1552.1l4.5,3.9l-4.3,0.7L-736.4,1552.1z M-679.6,1552.5l2.7,0l4.5,0l0,0l2,6L-679.6,1552.5L-679.6,1552.5z M-671.4,1552.6
		l15.2,1.3l-13.1,5.1L-671.4,1552.6z M-682,1552.8l-5.5,10.3l-1.6-7.9L-682,1552.8z M-680.5,1552.9l10.2,6.7l-8.6,7.6L-680.5,1552.9
		L-680.5,1552.9z M-723,1553.3l7.2,4.2l-8.2,2.8L-723,1553.3z M-681.4,1553.5l1.5,13.9l-7.3-3.2L-681.4,1553.5z M-724,1554l-0.9,6.2
		l-3.1-1.7L-724,1554z M-654.4,1554.2l6.9,12.6l-20.8-7.2l3.3-1.3L-654.4,1554.2L-654.4,1554.2z M-698.1,1555.1l8,0.2l1.1,5.4
		l0.5,2.5L-698.1,1555.1L-698.1,1555.1z M-699.4,1555.2l8.7,7.4l-12-5.6L-699.4,1555.2z M-703.3,1557.7l14.2,6.7l-16.4,4.4
		L-703.3,1557.7z M-704.3,1558.2l-2,10l-3.3-5.5L-704.3,1558.2z M-715.6,1558.3l-1.8,4.1l-5.7-1.5L-715.6,1558.3z M-728.5,1559.3
		l2.9,1.6l-4.7,2.1L-728.5,1559.3z M-669.1,1560.3l20.8,7.3l-20.7,3.7L-669.1,1560.3z M-670,1560.6l0.1,10.5l-8.6-3.1L-670,1560.6z
		 M-710.5,1563.1l2.9,4.8l0.5,0.9l-11.5-2.2L-710.5,1563.1z M-687.5,1565.1l6.9,3l-8.5,3.1L-687.5,1565.1z M-688.4,1565.1l-1,4
		l-0.6,2.3l-13.9-2.1l6.6-1.8L-688.4,1565.1L-688.4,1565.1z M-719.9,1567.3l12.2,2.4l-18.5,7.8L-719.9,1567.3z M-721.3,1567.9
		l-5.7,9.2l-0.7-5.9L-721.3,1567.9z M-647.3,1568.3l-3.7,8.6l-5-1.5l-11.5-3.5l10.5-1.9L-647.3,1568.3z M-678.7,1568.9l8.5,3.1
		l-6.6,7.5L-678.7,1568.9z M-680.1,1569l-3.3,8.4l-5.4-5.2L-680.1,1569z M-679.5,1569.8l0.5,2.6l1.3,7.3l-5-1.9L-679.5,1569.8z
		 M-704.9,1570.1l13.9,2.1l-7.6,4.5L-704.9,1570.1z M-706.5,1570.1l2.1,17.2l-21.7-8.9L-706.5,1570.1z M-705.5,1570.8l1.8,1.9
		l4.4,4.7l-4.3,9L-705.5,1570.8L-705.5,1570.8z M-668.9,1572.4l8.6,2.6l8.1,2.4l-15,6L-668.9,1572.4L-668.9,1572.4z M-690.1,1572.7
		l0.1,6.8l-7.6-2.3l4.2-2.5L-690.1,1572.7z M-669.7,1572.8l1.7,10.6l-8.2-3.1L-669.7,1572.8z M-689.2,1573l5.1,4.9l-5,1.6
		L-689.2,1573z M-697.5,1578.1l5.7,1.8l1.5,0.5l-2.4,4.2L-697.5,1578.1z M-698.6,1578.2l5.3,7l-9.7,2.2L-698.6,1578.2z
		 M-651.6,1578.2l-2.9,7.3l-11.2-1.6L-651.6,1578.2L-651.6,1578.2z M-683,1578.7l4.8,1.8l-4.9,2.5l-2.6,1.3L-683,1578.7L-683,1578.7
		z M-684.1,1578.9l-2.6,5.5l-2.2-4L-684.1,1578.9z M-725.7,1579.5l20.7,8.5l-9.8,4.2L-725.7,1579.5L-725.7,1579.5z M-726.7,1579.7
		l10.2,11.8l-9.8-4.1L-726.7,1579.7z M-689.6,1581l2.2,3.9l-0.7,0l-3.6,0L-689.6,1581L-689.6,1581z M-677.4,1581.1l1.4,6.1l-9.4-2
		L-677.4,1581.1z M-676.4,1581.2l1.8,0.7l5.9,2.3l-6.4,3L-676.4,1581.2L-676.4,1581.2z M-740.8,1584.2l12.2,3.5l-2.3,0.5l-7.9,1.8
		L-740.8,1584.2z M-741.6,1584.5l0.5,1.4l1.3,4l-4.7-1.4L-741.6,1584.5z M-666.5,1584.7l11.6,1.7l-4.2,8.8L-666.5,1584.7z
		 M-667.5,1584.8l5.9,8.3l1.6,2.3l-13.8-2.6l1.4-1.7L-667.5,1584.8z M-669.1,1585.3l-0.7,0.9l-4.6,5.7l-0.5-3.9L-669.1,1585.3z
		 M-687,1585.8l2.7,7.1l-7.2-7l3.5,0L-687,1585.8L-687,1585.8z M-693.3,1586l-1.6,3.9l-7-1.9L-693.3,1586z M-692.4,1586.2l7.5,7.3
		l-9.1-3.3L-692.4,1586.2z M-727.2,1588.3l0.7,4.8l1.4,9.5l-13.2-11.8L-727.2,1588.3z M-726.2,1588.5l10.5,4.4l-8.3,9.8
		L-726.2,1588.5z M-745.1,1589.4l0.8,0.2l4.2,1.2l-7.8,6.4L-745.1,1589.4z M-738.8,1591.6l12.7,11.3l0.8,0.7l-15.2,5.9
		L-738.8,1591.6L-738.8,1591.6z M-740.3,1592.1l-4.5,10.9l-3.5-4.3L-740.3,1592.1z M-691.4,1592.1l6.8,2.5l-2.2,0.6L-691.4,1592.1
		L-691.4,1592.1z M-695.3,1593.3l-3.6,0.1c0,0,0,0,0,0c0,0-0.1,0-0.1,0c0,0,0,0,0,0c0,0,0,0,0,0c0,0,0,0,0,0c0,0-0.1,0-0.1,0.1
		c0,0,0,0,0,0c-0.1,0.1-0.1,0.2-0.1,0.3l0.1,3.9c0,0.3,0.2,0.5,0.5,0.4c0.1,0,0.2-0.1,0.3-0.1l2.1-2.3c0,0,0,0,0,0c0,0,0,0,0,0
		l1.4-1.7c0.2-0.2,0.1-0.5-0.1-0.6C-695,1593.4-695.1,1593.3-695.3,1593.3L-695.3,1593.3z M-739.9,1593.6l-1.4,15.2l-2.9-5l2.1-5
		L-739.9,1593.6z M-673.8,1593.7l2.4,0.4l10.9,2.1l-9.9,4.3L-673.8,1593.7z M-696.2,1594.2l-0.5,0.6l-0.8-0.6L-696.2,1594.2
		L-696.2,1594.2z M-698.4,1594.8l1,0.7l0.1,0l-1,1.1L-698.4,1594.8L-698.4,1594.8z M-683.6,1595.3l-0.1,4.6l-2.5-3.8L-683.6,1595.3z
		 M-681.8,1596.5l4,3.8l-1.6,1.9L-681.8,1596.5z M-682.7,1596.8l2.3,5.3l-2.4-1.1L-682.7,1596.8L-682.7,1596.8z M-660.7,1597.3
		l-5.7,6.4l-3.4-2.5L-660.7,1597.3L-660.7,1597.3z M-697.3,1598.9c-0.1,0-0.1,0-0.2,0l-3.2,1.4c0,0,0,0,0,0c0,0,0,0,0,0c0,0,0,0,0,0
		c0,0,0,0,0,0c0,0-0.1,0-0.1,0.1c0,0,0,0,0,0c0,0,0,0,0,0c0,0,0,0,0,0c0,0,0,0,0,0c0,0,0,0,0,0c0,0,0,0,0,0c0,0,0,0,0,0c0,0,0,0,0,0
		c0,0,0,0,0,0c0,0,0,0,0,0c0,0,0,0.1,0,0.1c0,0,0,0,0,0c0,0,0,0,0,0l1.6,5.9c0.1,0.2,0.3,0.4,0.6,0.3c0.1,0,0.2-0.1,0.2-0.1l3.9-4.3
		c0.2-0.2,0.2-0.4,0-0.6l-2.3-2.9C-697.1,1599-697.2,1598.9-697.3,1598.9L-697.3,1598.9z M-748.6,1599.8l3.1,3.7l-2.6,0.4l-0.7,0.1
		L-748.6,1599.8L-748.6,1599.8z M-697.5,1599.9l1.2,1.6l-2.9-0.8L-697.5,1599.9z M-677.4,1601.1l0.8,2.4l-2.2-0.7L-677.4,1601.1
		L-677.4,1601.1z M-699.9,1601.4l3.5,1l0.5,0.1l-2.9,3.2L-699.9,1601.4z M-682.5,1602.2l2.2,1l-1.3,1.6L-682.5,1602.2z
		 M-683.3,1602.5l1,2.9l-1.9,0.8l-1.2,0.5L-683.3,1602.5z M-744.9,1604.4L-744.9,1604.4l2.5,4.3l0.1,0.1l-5.8-3.9L-744.9,1604.4
		L-744.9,1604.4z M-682.5,1606.5l-1.4,4.7l-1.8-3.3L-682.5,1606.5z M-686.6,1608.2l0.2,0.4l1.5,2.8l-4.4-1.8L-686.6,1608.2
		L-686.6,1608.2z"/>
	<g id="g8102-6-3-2-1-6-6" transform="translate(2916.1911,995.7306)">
		<path id="path40918-2-1-3-0-8-7-1-1-0-8-1-4-9-7-1-8-2-1" inkscape:connector-curvature="0" class="st1" d="M-3664.5,498
			L-3664.5,498l-0.3,0.2l0,0l-0.7,0.5l0,0l-0.7,0.5l0,0l-0.7,0.5l0,0l-0.7,0.5l0,0l-0.7,0.5l0,0l-0.7,0.5l0,0l-0.7,0.5l0,0l-0.7,0.5
			l0,0l-0.7,0.6l0,0l-0.7,0.6l0,0l-0.7,0.6l0,0l-0.7,0.6l0,0l-0.7,0.6l0,0l-0.7,0.6l0,0l-0.7,0.6l0,0l-0.7,0.6l0,0l-0.6,0.6l0,0
			l-0.6,0.6l0,0l-0.6,0.6l0,0l-0.6,0.6l0,0l-0.6,0.7l0,0l-0.6,0.7l0,0l-0.6,0.7l0,0l-0.6,0.7l0,0l-0.6,0.7l0,0l-0.6,0.7l0,0
			l-0.6,0.7l0,0l-0.6,0.7l0,0l-0.6,0.7l0,0l-0.5,0.7l0,0l-0.5,0.7l0,0l-0.5,0.7l0,0l-0.5,0.7l0,0l-0.1,0.2l-0.2,0.7l0.2,0.7l0.6,0.4
			l0.8,0l0.6-0.4l0-0.1l0.1-0.1l0,0v0l0.5-0.7l0,0l0.5-0.7l0,0l0.5-0.7v0l0,0l0.5-0.7v0l0,0l0.5-0.7l0,0l0.5-0.7l0,0l0.6-0.7l0,0
			l0,0l0.6-0.7l0,0v0l0.6-0.7l0,0l0.6-0.7l0,0l0.6-0.7l0.6-0.6l0,0v0l0.6-0.6l0,0l0.6-0.6l0,0l0.6-0.6l0.6-0.6l0,0v0l0.6-0.6l0,0
			l0.6-0.6l0.6-0.6l0,0v0l0.6-0.6l0,0l0.7-0.6l0.7-0.6l0.7-0.6l0,0l0,0l0.7-0.5l0,0l0.7-0.5l0,0l0,0l0.7-0.5l0,0v0l0.7-0.5l0,0
			l0.7-0.5l0.7-0.5l0,0v0l0.7-0.5l0,0l0.7-0.5l0,0l0,0l0.7-0.5l0.7-0.5l0,0l0.2-0.1l0.5-0.6l0.1-0.8l-0.4-0.7l-0.7-0.3L-3664.5,498z
			"/>
		<path id="path40872-3-8-5-3-6-9-0-3-6-9-8-7-2-7-9-5-5-0" inkscape:connector-curvature="0" class="st1" d="M-3693.5,597l-0.4,0.7
			l0.1,0.8l0,0.1l0.1,0.2l0,0l0.5,0.8l0,0l0.5,0.8l0,0l0.5,0.8l0,0l0.5,0.8l0,0l0.5,0.8l0,0l0.5,0.8l0,0l0.5,0.8l0,0l0.5,0.8l0,0
			l0.5,0.8l0,0l0.5,0.8l0,0l0.5,0.8l0,0l0.6,0.8l0,0l0.6,0.7l0,0l0.6,0.7l0,0l0.6,0.7l0,0l0.6,0.7l0,0l0.6,0.7l0,0l0.6,0.7l0,0
			l0.6,0.7l0,0l0.6,0.7l0,0l0.6,0.7l0,0l0.6,0.7l0,0l0.7,0.7l0,0l0.7,0.7l0,0l0.7,0.7l0,0l0.7,0.7l0,0l0.7,0.6l0,0l0.7,0.6l0,0
			l0.7,0.6l0,0l0.7,0.6l0,0l0.7,0.6l0,0l0.7,0.6l0.7,0.3l0.7-0.2l0.5-0.6l0.1-0.8l-0.4-0.7l-0.1-0.1l-0.7-0.6l0,0l0,0l-0.7-0.6
			l-0.7-0.6l0,0l-0.7-0.6l0,0l0,0l-0.7-0.6l-0.7-0.6l0,0l-0.7-0.6l0,0l-0.6-0.6l0,0l0,0l-0.6-0.6l0,0l0,0l-0.6-0.7l0,0l-0.6-0.7
			l-0.6-0.7l0,0l0,0l-0.6-0.7l0,0l-0.6-0.7l-0.6-0.7v0v0l-0.6-0.7l0,0l0,0l-0.6-0.7l0,0l-0.6-0.7l-0.6-0.7l-0.6-0.7l0,0l-0.5-0.7
			l-0.5-0.7l0,0l0,0l-0.5-0.7l0,0l-0.5-0.7l0,0l0,0l-0.5-0.8l-0.5-0.8l0,0l-0.5-0.8l0,0l0,0l-0.5-0.8l-0.5-0.8l0,0l-0.5-0.8l0,0l0,0
			l-0.4-0.8l-0.4-0.8l0,0l-0.1-0.2l-0.5-0.5l-0.8-0.1L-3693.5,597z"/>
		<path id="path40922-1-5-9-3-5-1-6-6-5-0-6-4-1-2-7-9-9-8" inkscape:connector-curvature="0" class="st1" d="M-3579.7,501.2
			l-0.5,0.6l-0.1,0.8l0.4,0.7l0.1,0.1l0.6,0.5l0,0l0.7,0.6l0,0l0.7,0.6l0.7,0.6l0.7,0.6l0,0l0.7,0.6v0l0.7,0.6v0l0,0l0.6,0.6
			l0.7,0.6l0.6,0.6v0l0,0l0.6,0.6l0,0v0l0.6,0.6l0,0v0l0.6,0.6l0,0l0.6,0.6v0l0,0l0.6,0.6l0,0v0l0.6,0.7l0,0l0.6,0.7l0.6,0.7
			l0.6,0.7l0,0l0.6,0.7l0,0l0.5,0.7v0v0l0.5,0.7l0,0v0l0.5,0.7l0,0l0.5,0.7l0.5,0.7l0,0v0l0.5,0.7l0,0l0.5,0.7v0v0l0.5,0.7l0,0v0
			l0.5,0.7l0,0l0.5,0.7v0l0,0l0.5,0.7l0,0l0.5,0.8l0,0l0.4,0.8v0l0,0l0.1,0.2l0.6,0.5l0.8,0.1l0.7-0.4l0.3-0.7l-0.1-0.8l0-0.1
			l-0.1-0.2l0,0l-0.5-0.8l0,0l-0.5-0.8l0,0l-0.5-0.8l0,0l-0.5-0.8l0,0l-0.5-0.8l0,0l-0.5-0.8l0,0l-0.5-0.7l0,0l-0.5-0.7l0,0
			l-0.5-0.7l0,0l-0.5-0.7l0,0l-0.5-0.7l0,0l-0.6-0.7l0,0l-0.6-0.7l0,0l-0.6-0.7l0,0l-0.6-0.7l0,0l-0.6-0.7l0,0l-0.6-0.7l0,0
			l-0.6-0.7l0,0l-0.6-0.7l0,0l-0.6-0.7l0,0l-0.6-0.7l0,0l-0.6-0.6l0,0l-0.6-0.6l0,0l-0.7-0.6l0,0l-0.7-0.6l0,0l-0.7-0.6l0,0
			l-0.7-0.6l0,0l-0.7-0.6l0,0l-0.7-0.6l0,0l-0.7-0.6l0,0l-0.7-0.6l0,0l-0.7-0.6l0,0l-0.7-0.5l-0.7-0.3L-3579.7,501.2z"/>
		<path id="path40866-3-8-9-5-6-3-9-4-8-0-5-6-7-3-6-7-1-3" inkscape:connector-curvature="0" class="st1" d="M-3683.7,603.5
			l-0.6,0.4l-0.3,0.7l0.2,0.7l0,0.1l0.2,0.3l0,0l0.5,0.7l0,0l0.5,0.7l0,0l0.5,0.7l0,0l0.6,0.7l0,0l0.6,0.7l0,0l0.6,0.7l0,0l0.6,0.7
			l0,0l0.6,0.7l0,0l0.6,0.7l0,0l0.6,0.6l0,0l0.6,0.6l0,0l0.6,0.6l0,0l0.6,0.6l0,0l0.6,0.6l0,0l0.6,0.6l0,0l0.7,0.6l0,0l0.7,0.6l0,0
			l0.7,0.6l0,0l0.7,0.6l0,0l0.7,0.6l0,0l0.7,0.6l0,0l0.7,0.6l0,0l0.7,0.5l0,0l0.7,0.5l0,0l0.7,0.5l0,0l0.7,0.5l0,0l0.7,0.5l0,0
			l0.7,0.5l0,0l0.7,0.5l0,0l0.8,0.5l0,0l0.8,0.5l0,0l0.8,0.5l0,0l0.8,0.5l0,0l0.4,0.2l0.7,0.2l0.7-0.3l0.4-0.6l0-0.8l-0.5-0.6
			l-0.1,0l-0.4-0.2l0,0h0l-0.8-0.4l-0.7-0.4l0,0l0,0l-0.7-0.5l-0.7-0.5h0l0,0l-0.7-0.5l0,0l0,0l-0.7-0.5l0,0l0,0l-0.7-0.5l0,0l0,0
			l-0.7-0.5l0,0l-0.7-0.5l0,0l0,0l-0.7-0.5l0,0l-0.7-0.5l0,0l-0.7-0.5l0,0l-0.7-0.5l0,0l0,0l-0.7-0.5l0,0l0,0l-0.7-0.6l0,0l0,0
			l-0.6-0.6l0,0l0,0l-0.6-0.6l0,0l0,0l-0.6-0.6l-0.6-0.6l0,0l-0.6-0.6l0,0l-0.6-0.6l-0.6-0.6l0,0l0,0l-0.6-0.6l0,0l-0.6-0.6
			l-0.6-0.6l0,0l0,0l-0.6-0.6l0,0l-0.6-0.7l-0.6-0.6l-0.6-0.7l0,0l0,0l-0.5-0.7l0,0l-0.5-0.7l-0.5-0.7l0,0l0,0l-0.5-0.7l0,0
			l-0.2-0.3l-0.6-0.4L-3683.7,603.5z"/>
		<path id="path40936-2-3-3-0-4-4-1-3-7-0-3-3-7-7-8-5-7-0" inkscape:connector-curvature="0" class="st1" d="M-3616.8,486.2
			L-3616.8,486.2l-0.9-0.1l0,0l-0.9-0.1l0,0l-0.9-0.1l0,0l-0.9,0l0,0l-0.9,0l0,0l-0.9,0l0,0l-0.9,0l0,0l-0.9,0l0,0l-0.9,0l0,0
			l-0.9,0l0,0l-0.9,0l0,0l-0.9,0.1l0,0l-0.9,0.1l0,0l-0.9,0.1l0,0l-0.9,0.1l0,0l-0.9,0.1l0,0l-0.9,0.1l0,0l-0.9,0.1l0,0l-0.9,0.1
			l0,0l-0.9,0.1l0,0l-0.9,0.1l0,0l0,0l-0.7,0.4l-0.3,0.7l0.1,0.8l0.5,0.6l0.7,0.1l0.1,0l0,0l0.9-0.1v0l0.9-0.1l0.9-0.1v0l0,0
			l0.9-0.1l0.9-0.1v0l0,0l0.9-0.1l0.9-0.1v0l0.9-0.1l0.9-0.1l0,0l0,0l0.9,0l0.9,0l0,0l0,0l0.9,0l0.9,0v0l0,0l0.9,0l0.9,0v0l0.9,0
			l0.9,0v0l0.9,0l0,0v0l0.9,0l0.9,0.1l0,0v0l0.9,0.1l0.9,0.1l0,0l0,0l0.9,0.1l0.9,0.1v0l0,0l0.9,0.1l0.9,0.1l0.9,0.1l0,0v0l0.9,0.2
			l0.9,0.2l0,0v0l0.9,0.2l0.9,0.2v0l0,0l0.9,0.2l0.8,0.2l0.8-0.1l0.6-0.5l0.2-0.7l-0.3-0.7l-0.6-0.4l-0.1,0l-0.8-0.2l0,0l-0.9-0.2
			l0,0l-0.9-0.2l0,0l-0.9-0.2l0,0l-0.9-0.2l0,0l-0.9-0.2l0,0l-0.9-0.1l0,0l-0.9-0.1l0,0l-0.9-0.1l0,0l-0.9-0.1l0,0l-0.9-0.1l0,0
			L-3616.8,486.2z"/>
		<path id="path40932-7-1-2-2-4-1-2-1-5-0-5-2-9-2-2-3-7-0" inkscape:connector-curvature="0" class="st1" d="M-3604.9,492.9
			l-0.6,0.5l-0.2,0.7l0.2,0.7l0.6,0.5l0.1,0l0.9,0.3l0,0v0l0.8,0.3v0l0,0l0.8,0.3l0,0v0l0.8,0.3l0.8,0.3l0,0l0,0l0.8,0.3l0.8,0.3
			l0,0v0l0.8,0.3l0.8,0.3l0.8,0.3l0,0v0l0.8,0.3l0,0l0,0l0.8,0.4l0.8,0.4l0.8,0.4l0.8,0.4v0l0,0l0.8,0.4l0,0l0.7,0.4l0,0l0,0
			l0.7,0.4l0,0v0l0.7,0.4v0l0,0l0.7,0.4v0l0,0l0.7,0.4l0,0l0,0l0.7,0.4l0,0l0.7,0.5v0l0,0l0.7,0.5l0.7,0.5l0.7,0.5l0,0l0.7,0.5
			l0.7,0.5v0l0,0l0.7,0.5l0,0l0.7,0.5l0,0l0.7,0.5l0.7,0.5l0.6,0.5l0,0v0l0.6,0.5l0,0l0.2,0.2l0.7,0.3l0.7-0.2l0.5-0.6l0.1-0.8
			l-0.4-0.7l-0.1-0.1l-0.2-0.2l0,0l-0.7-0.6l0,0l-0.7-0.6l0,0l-0.7-0.5l0,0l-0.7-0.5l0,0l-0.7-0.5l0,0l-0.7-0.5l0,0l-0.7-0.5l0,0
			l-0.7-0.5l0,0l-0.7-0.5l0,0l-0.7-0.5l0,0l-0.7-0.5l0,0l-0.7-0.5l0,0l-0.7-0.5l0,0l-0.7-0.5l0,0l-0.8-0.4l0,0l-0.8-0.4l0,0
			l-0.8-0.4l0,0l-0.8-0.4l0,0l-0.8-0.4l0,0l-0.8-0.4l0,0l-0.8-0.4l0,0l-0.8-0.4l0,0l-0.8-0.4l0,0l-0.8-0.4l0,0l-0.8-0.3l0,0
			l-0.8-0.3l0,0l-0.8-0.3l0,0l-0.8-0.3l0,0l-0.8-0.3l0,0l-0.8-0.3l0,0l-0.9-0.3l0,0l-0.9-0.3l0,0l-0.9-0.3l0,0l-0.9-0.3
			L-3604.9,492.9z"/>
		<path id="path40908-2-0-4-8-63-0-7-0-5-9-6-5-7-5-0-8-4-2" inkscape:connector-curvature="0" class="st1" d="M-3561,531.4
			l-0.4,0.6l0,0.8l0,0.1l0.2,0.4l0,0l0.3,0.8v0v0l0.3,0.8l0,0l0.3,0.8v0l0.3,0.8v0v0l0.3,0.8v0l0.3,0.8l0.3,0.8l0,0v0l0.3,0.8
			l0.3,0.8v0v0l0.3,0.8l0,0v0l0.3,0.8v0l0,0l0.2,0.8v0l0.2,0.8v0v0l0.2,0.8l0.2,0.8v0l0,0l0.2,0.8l0,0v0l0.2,0.8l0.2,0.8v0l0.2,0.8
			l0.2,0.8v0l0,0l0.2,0.8v0l0.1,0.8l0.1,0.8v0l0.1,0.8l0.1,0.8h0v0l0.1,0.8v0l0.1,0.8l0,0l0,0l0.1,0.8l0.1,0.8l0,0l0,0l0.1,0.8
			l0.1,0.9l0,0l0,0l0,0.9l0,0.8h0l0,0l0,0.9l0,0.4l0.2,0.7l0.6,0.4l0.8,0l0.6-0.4l0.3-0.7v-0.1l0-0.4l0,0l0-0.9v0l0-0.9v0l0-0.9v0
			l-0.1-0.9v0l-0.1-0.9v0l-0.1-0.9v0l-0.1-0.9v0l-0.1-0.9v0l-0.1-0.9v0l-0.1-0.9v0l-0.1-0.9v0l-0.1-0.9v0l-0.2-0.8v0l-0.2-0.8v0
			l-0.2-0.8v0l-0.2-0.8v0l-0.2-0.8v0l-0.2-0.8v0l-0.2-0.8v0l-0.2-0.8v0l-0.2-0.8v0l-0.2-0.8v0l-0.3-0.8v0l-0.3-0.8v0l-0.3-0.8v0
			l-0.3-0.8v0l-0.3-0.8v0l-0.3-0.8v0l-0.3-0.8v0l-0.3-0.8v0l-0.3-0.8v0l-0.3-0.8v0l-0.3-0.8l0,0l-0.4-0.8v0l-0.2-0.4l-0.5-0.6
			l-0.7-0.2L-3561,531.4z"/>
		<path id="path40882-4-4-3-0-9-9-0-4-3-8-7-8-6-3-6-8-11-9" inkscape:connector-curvature="0" class="st1" d="M-3559.8,589.8
			l-0.5,0.5l0,0.1l-0.3,0.6l-0.4,0.8l0,0l-0.4,0.8h0l0,0l-0.4,0.8l-0.4,0.8l-0.4,0.8l0,0l-0.4,0.8l0,0v0l-0.4,0.7v0l0,0l-0.4,0.7
			l0,0v0l-0.4,0.7l0,0l0,0l-0.4,0.7l0,0l-0.5,0.7l-0.5,0.7l0,0l-0.5,0.7l0,0l-0.5,0.7l0,0l0,0l-0.5,0.7l0,0l-0.5,0.7v0v0l-0.5,0.7
			l0,0l0,0l-0.5,0.7l-0.5,0.7l0,0l-0.5,0.7l0,0l0,0l-0.5,0.7l-0.5,0.7l0,0l0,0l-0.5,0.6l0,0l-0.6,0.6l-0.6,0.6l0,0l0,0l-0.6,0.6
			l-0.6,0.6l0,0l-0.6,0.6l0,0l0,0l-0.6,0.6l0,0l0,0l-0.6,0.6l0,0l0,0l-0.6,0.6l0,0l-0.6,0.6l-0.6,0.6l0,0l0,0l-0.3,0.2l-0.4,0.7
			l0.1,0.8l0.5,0.6l0.7,0.2l0.7-0.3l0.1-0.1l0.3-0.3l0,0l0.6-0.6l0,0l0.6-0.6l0,0l0.6-0.6l0,0l0.6-0.6l0,0l0.6-0.6l0,0l0.6-0.6l0,0
			l0.6-0.6l0,0l0.6-0.6l0,0l0.6-0.7l0,0l0.6-0.7l0,0l0.6-0.7l0,0l0.6-0.7l0,0l0.6-0.7l0,0l0.5-0.7l0,0l0.5-0.7l0,0l0.5-0.7l0,0
			l0.5-0.7l0,0l0.5-0.7l0,0l0.5-0.7l0,0l0.5-0.7l0,0l0.5-0.7l0,0l0.5-0.7l0,0l0.5-0.8l0,0l0.5-0.8l0,0l0.5-0.8l0,0l0.4-0.8l0,0
			l0.4-0.8l0,0l0.4-0.8l0,0l0.4-0.8l0,0l0.4-0.8l0,0l0.4-0.8l0,0l0.4-0.8l0,0l0.4-0.8l0,0l0.3-0.6l0.1-0.8l-0.4-0.7l-0.7-0.3
			L-3559.8,589.8z"/>
		<path id="path40876-6-6-9-1-2-5-7-1-3-6-9-1-2-7-4-3-9-6" inkscape:connector-curvature="0" class="st1" d="M-3566,608.4l-0.7,0.4
			l-0.1,0.1l-0.3,0.4l0,0l0,0l-0.6,0.7l0,0l0,0l-0.6,0.7l-0.6,0.7l0,0l-0.6,0.7l0,0l0,0l-0.6,0.7l-0.6,0.7l-0.6,0.7l0,0l0,0
			l-0.6,0.6l-0.6,0.6l0,0l0,0l-0.6,0.6l0,0l-0.7,0.6l0,0l0,0l-0.7,0.6l0,0l0,0l-0.7,0.6l0,0l-0.7,0.6l-0.7,0.6h0h0l-0.7,0.6l0,0l0,0
			l-0.7,0.6l0,0l-0.7,0.6l-0.7,0.6l-0.7,0.5l0,0l-0.7,0.5h0h0l-0.7,0.5l0,0l0,0l-0.7,0.5l0,0l-0.7,0.5l0,0l0,0l-0.7,0.5l0,0l0,0
			l-0.7,0.5l0,0l0,0l-0.8,0.5l-0.8,0.5h0h0l-0.8,0.5l0,0l-0.8,0.5v0l0,0l-0.8,0.4l-0.8,0.4l0,0l-0.1,0.1l-0.5,0.5l-0.1,0.8l0.3,0.7
			l0.7,0.4l0.8-0.1l0.1,0l0.1-0.1l0,0l0.8-0.4l0,0l0.8-0.5l0,0l0.8-0.5l0,0l0.8-0.5l0,0l0.8-0.5l0,0l0.8-0.5l0,0l0.8-0.5l0,0
			l0.8-0.5l0,0l0.8-0.5l0,0l0.8-0.5l0,0l0.7-0.5l0,0l0.7-0.5l0,0l0.7-0.6l0,0l0.7-0.6l0,0l0.7-0.6l0,0l0.7-0.6l0,0l0.7-0.6l0,0
			l0.7-0.6l0,0l0.7-0.6l0,0l0.7-0.6l0,0l0.7-0.6l0,0l0.7-0.6l0,0l0.7-0.6l0,0l0.7-0.6l0,0l0.7-0.7l0,0l0.6-0.7l0,0l0.6-0.7l0,0
			l0.6-0.7l0,0l0.6-0.7l0,0l0.6-0.7l0,0l0.6-0.7l0,0l0.6-0.7l0,0l0.3-0.4l0.3-0.7l-0.2-0.7l-0.6-0.5L-3566,608.4z"/>
		<path id="path40856-3-9-5-9-7-8-7-7-0-3-6-9-7-6-3-1-1-5" inkscape:connector-curvature="0" class="st1" d="M-3603,629L-3603,629
			l-0.8,0.3l0,0h0l-0.8,0.3h0v0l-0.8,0.2l-0.8,0.2l-0.8,0.2h0h0l-0.8,0.2h0v0l-0.8,0.2l0,0h0l-0.8,0.2l-0.8,0.2h0l0,0l-0.8,0.2h0
			l-0.8,0.2h0v0l-0.8,0.2l-0.8,0.1h0v0l-0.8,0.1h0l-0.9,0.1l-0.8,0.1v0h0l-0.8,0.1l-0.9,0.1v0h0l-0.8,0.1l-0.9,0.1l0,0l0,0l-0.8,0.1
			l-0.9,0.1v0l0,0l-0.8,0l-0.9,0l0,0l0,0l-0.9,0l-0.9,0l0,0h-0.9l-0.9,0v0l0,0l-0.9,0l-0.9,0v0l0,0l-0.9,0h0v0l-0.9,0l-0.9-0.1h0v0
			l-0.9-0.1l-0.4,0l-0.7,0.2l-0.5,0.6l-0.1,0.8l0.4,0.7l0.7,0.3l0.1,0l0.4,0h0l0.9,0.1h0l0.9,0.1h0l0.9,0.1h0l0.9,0h0l0.9,0l0,0
			l0.9,0l0,0l0.9,0l0,0l0.9,0l0,0l0.9,0l0,0l0.9,0l0,0l0.9,0l0,0l0.9,0l0,0l0.9-0.1h0l0.9-0.1h0l0.9-0.1h0l0.9-0.1h0l0.9-0.1h0
			l0.9-0.1h0l0.9-0.1h0l0.9-0.1h0l0.9-0.1h0l0.9-0.2h0l0.9-0.2h0l0.9-0.2h0l0.9-0.2h0l0.9-0.2h0l0.8-0.2h0l0.8-0.2h0l0.8-0.2h0
			l0.8-0.2h0l0.8-0.2h0l0.8-0.3h0l0.8-0.3h0l0.7-0.2l0.6-0.4l0.2-0.7l-0.2-0.7l-0.6-0.5L-3603,629z"/>
	</g>
	<g id="g8114-1-8-3-8-3-4" transform="translate(2916.1911,995.7306)">
		<path id="path40880-6-8-2-4-8-7-3-1-2-4-3-2-5-1-6-9-8-3" inkscape:connector-curvature="0" class="st2" d="M-3557.9,604.6
			l-0.6,0.4l0,0.1l-0.4,0.6l-0.5,0.8l0,0l-0.6,0.8l0,0l-0.6,0.8l0,0l-0.6,0.8l0,0l0,0l-0.6,0.8l-0.6,0.8l0,0l-0.6,0.7l0,0l-0.6,0.7
			l-0.6,0.7l0,0l0,0l-0.6,0.7l-0.6,0.7l0,0l-0.6,0.7l0,0l0,0l-0.6,0.7h0l0,0l-0.6,0.7l0,0l-0.7,0.7l0,0l0,0l-0.7,0.7l0,0l0,0
			l-0.7,0.7l0,0l0,0l-0.7,0.7l0,0l-0.7,0.7l-0.7,0.6l0,0l0,0l-0.7,0.6l0,0l-0.7,0.6l-0.7,0.6h0h0l-0.7,0.6l0,0l0,0l-0.7,0.6l0,0
			l-0.7,0.6h0l0,0l-0.7,0.6l0,0l0,0l-0.8,0.6l0,0l-0.8,0.6l-0.8,0.6l0,0l0,0l-0.1,0l-0.5,0.6l0,0.8l0.4,0.6l0.7,0.3l0.7-0.2l0.1,0
			l0.1,0l0,0l0.8-0.6l0,0l0.8-0.6l0,0l0.8-0.6l0,0l0.8-0.6l0,0l0.8-0.6l0,0l0.8-0.6l0,0l0.7-0.6l0,0l0.7-0.6l0,0l0.7-0.6l0,0
			l0.7-0.7l0,0l0.7-0.7l0,0l0.7-0.7l0,0l0.7-0.7l0,0l0.7-0.7l0,0l0.7-0.7l0,0l0.7-0.7l0,0l0.7-0.7l0,0l0.7-0.7l0,0l0.7-0.7l0,0
			l0.6-0.7l0,0l0.6-0.7l0,0l0.6-0.8l0,0l0.6-0.8l0,0l0.6-0.8l0,0l0.6-0.8l0,0l0.6-0.8l0,0l0.6-0.8l0,0l0.6-0.8l0,0l0.6-0.8l0,0
			l0.6-0.8l0,0l0.4-0.6l0.2-0.7l-0.3-0.7l-0.6-0.4L-3557.9,604.6z"/>
		<path id="path40942-9-4-0-2-84-6-0-2-9-0-0-5-8-3-9-6-7-7" inkscape:connector-curvature="0" class="st2" d="M-3629.9,477.6
			l-0.5,0l0,0l-1,0.1l0,0l-1,0.1l0,0l-1,0.1l0,0l-1,0.1l0,0l-1,0.1l0,0l-1,0.2l0,0l-1,0.2l0,0l-1,0.2l0,0l-1,0.2l0,0l-1,0.2l0,0
			l-1,0.2l0,0l-1,0.2l0,0l-1,0.2l0,0l-1,0.2l0,0l-1,0.3l0,0l-1,0.3l0,0l-1,0.3l0,0l-1,0.3l0,0l-1,0.3l0,0l-1,0.3l0,0l-0.9,0.3l0,0
			l-0.9,0.3l0,0l-0.9,0.3l0,0l-0.9,0.4l0,0l-0.9,0.4l0,0l-0.9,0.4l0,0l-0.9,0.4l0,0l-0.9,0.4l0,0l-0.9,0.4l0,0l-0.5,0.2l-0.6,0.5
			l-0.2,0.7l0.3,0.7l0.6,0.4l0.8,0l0.1,0l0.5-0.2l0,0l0.9-0.4l0.9-0.4l0,0l0.9-0.4l0.9-0.4l0,0l0,0l0.9-0.4l0.9-0.4l0.9-0.3l0.9-0.3
			l0,0l0.9-0.3v0l0,0l0.9-0.3l0,0l0.9-0.3l0,0l0,0l0.9-0.3l0,0l0.9-0.3l0,0v0l0.9-0.3l0,0l1-0.3l0.9-0.2v0l0,0l0.9-0.2l1-0.2l0,0
			l0,0l1-0.2l1-0.2l1-0.2l0,0l1-0.2l0,0v0l1-0.2v0l0,0l1-0.1l0,0l1-0.1v0l0,0l1-0.1l1-0.1v0l0,0l1-0.1l1-0.1v0l0,0l0.5,0l0.7-0.3
			l0.4-0.6l0-0.8l-0.5-0.6L-3629.9,477.6L-3629.9,477.6z"/>
		<path id="path40940-5-0-3-6-3-0-8-1-2-2-1-2-8-6-0-4-4-0" inkscape:connector-curvature="0" class="st2" d="M-3600.4,480.8
			l-0.6,0.5l-0.2,0.7l0.2,0.7l0.6,0.5l0.1,0l0.2,0.1l0,0v0l1,0.3l1,0.3l0,0v0l1,0.3l1,0.3l0,0l0,0l1,0.4l1,0.4v0l0,0l1,0.4l0.9,0.4
			v0l0,0l0.9,0.4l0.9,0.4v0l0,0l0.9,0.4l0,0l0,0l0.9,0.4l0,0l0,0l0.9,0.4v0l0.9,0.5l0.9,0.5l0,0v0l0.9,0.5l0.9,0.5l0.9,0.5v0l0,0
			l0.9,0.5l0,0v0l0.9,0.5l0,0l0.9,0.5l0.8,0.5l0,0l0.8,0.5l0.8,0.6l0,0v0l0.8,0.6l0,0l0.8,0.6l0,0l0.8,0.6v0l0,0l0.8,0.6l0,0v0
			l0.6,0.4l0.7,0.3l0.7-0.2l0.5-0.6l0.1-0.8l-0.4-0.7l-0.1-0.1l-0.6-0.5l0,0l-0.8-0.6l0,0l-0.8-0.6l0,0l-0.8-0.6l0,0l-0.8-0.6l0,0
			l-0.9-0.6l0,0l-0.9-0.6l0,0l-0.9-0.6l0,0l-0.9-0.5l0,0l-0.9-0.5l0,0l-0.9-0.5l0,0l-0.9-0.5l0,0l-0.9-0.5l0,0l-0.9-0.5l0,0
			l-0.9-0.5l0,0l-0.9-0.5l0,0l-0.9-0.5l0,0l-0.9-0.4l0,0l-1-0.4l0,0l-1-0.4l0,0l-1-0.4l0,0l-1-0.4l0,0l-1-0.4l0,0l-1-0.4l0,0l-1-0.4
			l0,0l-1-0.4l0,0l-1-0.3l0,0l-1-0.3l0,0l-1-0.3l0,0l-0.2-0.1L-3600.4,480.8z"/>
		<path id="path40924-2-0-7-1-0-0-5-9-6-9-2-4-4-4-4-3-9-5" inkscape:connector-curvature="0" class="st2" d="M-3663.3,492.3
			L-3663.3,492.3l-0.5,0.3l0,0l-0.8,0.5l0,0l-0.8,0.5l0,0l-0.8,0.5l0,0l-0.8,0.5l0,0l-0.8,0.5l0,0l-0.8,0.5l0,0l-0.8,0.5l0,0
			l-0.8,0.5l0,0l-0.8,0.6l0,0l-0.8,0.6l0,0l-0.8,0.6l0,0l-0.7,0.6l0,0l-0.7,0.6l0,0l-0.7,0.6l0,0l-0.7,0.6l0,0l-0.7,0.6l0,0
			l-0.7,0.6l0,0l-0.7,0.6l0,0l-0.7,0.6l0,0l-0.7,0.7l0,0l-0.7,0.7l0,0l-0.7,0.7l0,0l-0.7,0.7l0,0l-0.7,0.7l0,0l-0.7,0.7l0,0
			l-0.6,0.7l0,0l-0.6,0.7l0,0l-0.6,0.7l0,0l-0.6,0.7l0,0l-0.6,0.7l0,0l-0.6,0.7l0,0l-0.1,0.2l-0.3,0.7l0.2,0.7l0.6,0.5l0.8,0.1
			l0.7-0.4l0.1-0.1l0.1-0.1l0,0l0.6-0.7l0.6-0.7l0.6-0.7l0,0l0.6-0.7v0l0,0l0.6-0.7v0l0,0l0.6-0.7l0.6-0.7l0,0l0.6-0.7v0l0,0
			l0.6-0.7v0l0,0l0.7-0.6l0.7-0.6l0,0l0.7-0.6l0.7-0.6l0.7-0.6l0,0l0.7-0.6l0.7-0.6l0,0l0,0l0.7-0.6l0.7-0.6l0,0l0.7-0.6l0.7-0.6
			l0,0v0l0.7-0.6h0l0.7-0.5v0l0,0l0.7-0.5l0.8-0.5l0,0l0.8-0.5v0l0,0l0.8-0.5l0.8-0.5l0,0l0.8-0.5v0l0,0l0.8-0.5l0,0l0,0l0.8-0.5
			l0,0l0.8-0.5v0l0,0l0.4-0.3l0.5-0.6l0.1-0.8l-0.4-0.7l-0.7-0.3L-3663.3,492.3z"/>
		<path id="path40902-8-9-4-3-93-0-5-0-5-1-4-3-5-0-8-3-3-0" inkscape:connector-curvature="0" class="st2" d="M-3550.2,552
			l-0.6,0.5l-0.2,0.7l0,0.1l0.1,0.6v0l0.1,0.9h0v0l0.1,0.9v0l0.1,0.9l0,0l0.1,0.9l0.1,0.9l0,0v0l0,0.9l0,0.9h0v0l0,0.9l0,0.9l0,0
			l0,0v0.9l0,0.9l0,0l0,0.9l0,0.9l0,0.9v0l0,0l-0.1,0.9l-0.1,0.9v0l0,0l-0.1,0.9l-0.1,0.9v0l0,0l-0.1,0.9l-0.1,0.9l0,0v0l-0.1,0.9
			l-0.1,0.9l0,0l-0.1,0.9v0h0l-0.2,0.9l-0.2,0.9v0l0,0l-0.2,0.9l-0.2,0.9l0,0v0l-0.2,0.9v0h0l-0.2,0.9l-0.2,0.9v0h0l-0.2,0.9
			l-0.2,0.6l0,0.8l0.5,0.6l0.7,0.2l0.7-0.2l0.5-0.6l0-0.1l0.2-0.6l0,0l0.2-0.9v0l0.2-0.9v0l0.2-0.9v0l0.2-0.9v0l0.2-0.9v0l0.2-0.9v0
			l0.2-0.9v0l0.2-0.9v0l0.1-0.9v0l0.1-0.9v0l0.1-0.9v0l0.1-0.9v0l0.1-0.9v0l0.1-0.9v0l0.1-0.9v0l0.1-0.9v0l0.1-0.9v0l0-0.9l0,0
			l0-0.9l0,0l0-0.9l0,0l0-0.9l0,0V562v0l0-0.9l0,0l0-0.9l0,0l0-0.9v0l0-0.9v0l-0.1-0.9v0l-0.1-0.9v0l-0.1-0.9v0l-0.1-0.9v0l-0.1-0.9
			v0l-0.1-0.6l-0.3-0.7l-0.7-0.4L-3550.2,552z"/>
		<path id="path40914-0-4-0-4-0-4-7-9-6-9-5-9-6-3-5-3-1-7" inkscape:connector-curvature="0" class="st2" d="M-3684.1,502.9
			L-3684.1,502.9l-0.3,0.3l0,0l-0.7,0.7l0,0l-0.7,0.7l0,0l-0.7,0.7l0,0l-0.7,0.7l0,0l-0.7,0.8l0,0l-0.7,0.8l0,0l-0.6,0.8l0,0
			l-0.6,0.8l0,0l-0.6,0.8l0,0l-0.6,0.8l0,0l-0.6,0.8l0,0l-0.6,0.8l0,0l-0.6,0.8l0,0l-0.6,0.8l0,0l-0.6,0.8l0,0l-0.6,0.8l0,0
			l-0.5,0.9l0,0l-0.5,0.9l0,0l-0.5,0.9l0,0l-0.5,0.9l0,0l-0.5,0.9l0,0l-0.5,0.9l0,0l-0.5,0.9l0,0l-0.5,0.9l0,0l-0.5,0.9l0,0
			l-0.5,0.9l0,0l-0.4,0.9l0,0l-0.4,0.9l0,0l-0.4,0.9l0,0l-0.2,0.4l-0.1,0.8l0.4,0.7l0.7,0.3l0.7-0.1l0.5-0.5l0-0.1l0.2-0.4l0,0v0
			l0.4-0.9v0v0l0.4-0.9l0,0l0.4-0.9l0.4-0.9l0.5-0.9v0v0l0.5-0.9l0,0h0l0.5-0.9v0v0l0.5-0.9h0l0.5-0.9v0l0,0l0.5-0.9l0,0v0l0.5-0.8
			l0,0l0.5-0.8l0.5-0.8l0,0l0.6-0.8l0.6-0.8l0,0v0l0.6-0.8l0,0l0.6-0.8v0l0,0l0.6-0.8l0.6-0.8l0,0l0,0l0.6-0.8l0,0l0.6-0.8l0.6-0.8
			l0,0v0l0.6-0.7l0,0v0l0.6-0.7l0.7-0.7v0l0,0l0.7-0.7v0l0,0l0.7-0.7l0,0v0l0.7-0.7l0.7-0.7l0,0l0,0l0.2-0.2l0.3-0.7l-0.1-0.8
			l-0.5-0.6l-0.7-0.1L-3684.1,502.9z"/>
		<path id="path40850-0-1-6-6-9-5-6-3-0-0-2-2-5-5-1-8-38-2" inkscape:connector-curvature="0" class="st2" d="M-3605.9,638.8
			l-0.9,0.2v0h0l-0.9,0.2l-0.9,0.2v0h0l-0.9,0.2l-0.9,0.2h0v0l-0.9,0.2h0l-0.9,0.2h0v0l-0.9,0.2v0h0l-0.9,0.1h0v0l-0.9,0.1v0h0
			l-0.9,0.1h0l-0.9,0.1v0h0l-0.9,0.1h0l-0.9,0.1v0l0,0l-1,0.1l-1,0.1v0l0,0l-1,0.1l-1,0v0h0l-1,0l-1,0v0l0,0h-1l-1,0v0l0,0l-1,0l0,0
			l0,0l-1,0l-1,0h0v0l-1-0.1l-1-0.1h0v0l-1-0.1l-1-0.1l0,0l0,0l-1-0.1l-0.6-0.1l-0.7,0.1l-0.5,0.5l-0.1,0.8l0.3,0.7l0.7,0.4l0.1,0
			l0.6,0.1h0l1,0.1h0l1,0.1h0l1,0.1h0l1,0.1h0l1,0.1h0l1,0l0,0l1,0l0,0l1,0l0,0l1,0l0,0l1,0l0,0l1,0l0,0l1,0l0,0l1,0l0,0l1-0.1h0
			l1-0.1h0l1-0.1h0l1-0.1h0l1-0.1h0l1-0.1h0l1-0.1h0l1-0.1h0l1-0.1h0l1-0.2h0l1-0.2h0l1-0.2h0l1-0.2h0l1-0.2h0l1-0.2h0l0.9-0.2h0
			l0.9-0.2l0.6-0.4l0.3-0.7l-0.2-0.7l-0.6-0.5l-0.8-0.1L-3605.9,638.8z"/>
		<path id="path40938-9-8-4-0-48-9-8-7-8-1-3-8-6-8-2-6-7-8" inkscape:connector-curvature="0" class="st2" d="M-3616.4,482
			L-3616.4,482l-1-0.1l0,0l-1-0.1l0,0l-1-0.1l0,0l-1,0l0,0l-1,0l0,0l-1,0l0,0l-1,0l0,0l-1,0l0,0l-1,0l0,0l-1,0l0,0l-1,0l0,0l-1,0.1
			l0,0l-1,0.1l0,0l-1,0.1l0,0l-1,0.1l0,0l-1,0.1l0,0l-0.9,0.1l0,0l-0.9,0.1l0,0l-0.6,0.1l-0.7,0.3l-0.4,0.7l0.1,0.8l0.5,0.6l0.7,0.2
			l0.1,0l0.6-0.1v0l0,0l0.9-0.1l0,0l0.9-0.1v0l0.9-0.1l0,0l0.9-0.1v0l0,0l0.9-0.1l0.9-0.1v0l0,0l0.9-0.1l0.9,0l0,0l0,0l0.9,0l0,0
			l0.9,0l0,0l0,0l0.9,0l0.9,0v0l0,0l0.9,0l0,0l0,0l0.9,0v0l0,0l0.9,0l0,0v0l1,0.1l0.9,0.1l0,0v0l1,0.1l0.9,0.1l0,0l0,0l1,0.1
			l0.9,0.1v0l0,0l1,0.1l0.9,0.1l1,0.2l0,0v0l0.9,0.2l1,0.2l0,0l0,0l0.9,0.2l1,0.2v0l0,0l1,0.2l1,0.2l0.4,0.1l0.8,0l0.6-0.5l0.2-0.7
			l-0.3-0.7l-0.6-0.4l-0.1,0l-0.4-0.1l0,0l-1-0.2l0,0l-1-0.2l0,0l-1-0.2l0,0l-1-0.2l0,0l-1-0.2l0,0l-1-0.2l0,0l-1-0.2l0,0l-1-0.1
			l0,0l-1-0.1l0,0l-1-0.1l0,0l-1-0.1l0,0L-3616.4,482z"/>
		<path id="path40928-0-1-7-6-41-0-6-2-2-3-2-2-8-5-9-0-9-4" inkscape:connector-curvature="0" class="st2" d="M-3578.1,497
			l-0.5,0.6l0,0.8l0.4,0.6l0.1,0l0.1,0.1v0l0,0l0.8,0.6l0,0v0l0.7,0.6l0.8,0.6l0.7,0.6l0.7,0.6l0,0v0l0.7,0.6l0.7,0.6l0,0l0.7,0.6v0
			l0,0l0.7,0.6v0l0,0l0.7,0.6l0,0l0.7,0.6l0,0l0,0l0.7,0.7l0,0v0l0.7,0.7l0,0v0l0.6,0.7l0,0l0.6,0.7l0.6,0.7l0,0v0l0.6,0.7l0,0
			l0.6,0.7l0.6,0.7v0v0l0.6,0.7l0.6,0.7l0,0l0.6,0.7l0.6,0.7l0,0v0l0.6,0.7l0,0l0.6,0.7v0l0,0l0.5,0.8l0.5,0.8l0,0l0.5,0.8v0l0,0
			l0.5,0.8l0,0l0.5,0.8l0,0l0.5,0.8l0.1,0.1l0.6,0.5l0.8,0.1l0.7-0.4l0.3-0.7l-0.1-0.7l0-0.1l-0.1-0.1l0,0l-0.5-0.8l0,0l-0.5-0.8
			l0,0l-0.5-0.8l0,0l-0.5-0.8l0,0l-0.6-0.8l0,0l-0.6-0.8l0,0l-0.6-0.8l0,0l-0.6-0.8l0,0l-0.6-0.8l0,0l-0.6-0.8l0,0l-0.6-0.7l0,0
			l-0.6-0.7l0,0l-0.6-0.7l0,0l-0.6-0.7l0,0l-0.6-0.7l0,0l-0.7-0.7l0,0l-0.7-0.7l0,0l-0.7-0.7l0,0l-0.7-0.7l0,0l-0.7-0.7l0,0
			l-0.7-0.7l0,0l-0.7-0.7l0,0l-0.7-0.7l0,0l-0.7-0.6l0,0l-0.7-0.6l0,0l-0.7-0.6l0,0l-0.7-0.6l0,0l-0.8-0.6l0,0l-0.8-0.6l0,0
			l-0.8-0.6l0,0l-0.8-0.6l0,0l-0.1-0.1l-0.7-0.2L-3578.1,497z"/>
		<path id="path40906-2-8-4-7-8-4-4-4-4-1-0-7-4-0-7-4-3-2" inkscape:connector-curvature="0" class="st2" d="M-3546.7,546.9
			l-0.5,0.5l-0.1,0.7l0,0.1l0.1,0.4l0,0v0l0.2,0.9l0.2,0.9l0,0v0l0.1,0.9l0.1,0.9h0v0l0.1,0.9l0.1,0.9h0v0l0.1,0.9v0l0.1,0.9l0,0
			l0,0l0.1,1l0.1,0.9h0l0,0l0.1,1l0,0.9l0,0l0,0l0,1l0,0.9h0v0v1l0,0.9l0,0v0l0,0.9l0,0l0,0l0,0.9h0v0l0,0.9v0h0l-0.1,0.9l-0.1,1v0
			l0,0l-0.1,1l-0.1,1v0v0l-0.1,1l-0.1,1l0,0v0l-0.1,1l-0.1,1l-0.2,1v0h0l-0.2,1l-0.2,0.9l0,0v0l-0.1,0.3l0.1,0.8l0.5,0.6l0.7,0.2
			l0.7-0.3l0.4-0.6l0-0.1l0.1-0.3v0l0.2-1v0l0.2-1v0l0.2-1v0l0.1-1v0l0.1-1v0l0.1-1v0l0.1-1v0l0.1-1v0l0.1-1v0l0.1-1v0l0.1-1v0l0-1
			l0,0l0-1l0,0l0-1l0,0l0-1l0,0v-1l0,0l0-1l0,0l0-1l0,0l0-1v0l-0.1-1v0l-0.1-1v0l-0.1-1v0l-0.1-1v0l-0.1-1v0l-0.1-1v0l-0.1-1v0
			l-0.1-1v0l-0.1-1v0l-0.2-1v0l-0.2-1v0l-0.1-0.5l-0.4-0.7l-0.7-0.3L-3546.7,546.9z"/>
		<path id="path40886-4-9-3-0-01-6-2-3-6-59-3-9-8-9-3-8-88-5" inkscape:connector-curvature="0" class="st2" d="M-3542.3,575
			l-0.4,0.7l0,0.1l-0.1,0.5v0l0,0l-0.2,1l-0.2,1l0,0l-0.2,1l-0.2,1h0v0l-0.2,1l-0.2,1l-0.3,1v0h0l-0.3,1l-0.3,1h0v0l-0.3,1v0h0
			l-0.3,1l-0.3,1v0h0l-0.3,1l-0.3,1v0v0l-0.4,1l-0.4,1l0,0l-0.4,1v0v0l-0.4,1h0v0l-0.4,0.9l-0.4,1l-0.4,0.9l-0.5,1l-0.5,0.9
			l-0.5,0.9l0,0l0,0l-0.5,0.9l-0.5,0.9l0,0l-0.5,0.9l-0.4,0.8l-0.2,0.7l0.3,0.7l0.6,0.4l0.8,0l0.6-0.5l0-0.1l0.4-0.8l0,0l0.5-0.9
			l0,0l0.5-0.9l0,0l0.5-0.9l0,0l0.5-0.9l0,0l0.5-0.9l0,0l0.5-1l0,0l0.4-1l0,0l0.4-1l0,0l0.4-1l0,0l0.4-1l0,0l0.4-1l0,0l0.4-1l0,0
			l0.4-1l0,0l0.4-1l0,0l0.3-1l0,0l0.3-1l0,0l0.3-1l0,0l0.3-1l0,0l0.3-1l0,0l0.3-1l0,0l0.3-1l0,0l0.2-1v0l0.2-1v0l0.2-1v0l0.2-1v0
			l0.2-1v0l0.2-1v0l0.1-0.6l-0.1-0.8l-0.5-0.5l-0.7-0.1L-3542.3,575z"/>
		<path id="path40864-2-6-9-9-99-5-4-3-2-9-0-3-8-9-8-8-4-7" inkscape:connector-curvature="0" class="st2" d="M-3687.6,612.5
			l-0.6,0.5l-0.2,0.7l0.2,0.7l0,0.1l0.3,0.3l0,0l0.6,0.8l0,0l0.7,0.7l0,0l0.7,0.7l0,0l0.7,0.7l0,0l0.7,0.7l0,0l0.7,0.7l0,0l0.7,0.7
			l0,0l0.7,0.7l0,0l0.7,0.7l0,0l0.7,0.7l0,0l0.7,0.7l0,0l0.7,0.7l0,0l0.7,0.7l0,0l0.8,0.6l0,0l0.8,0.6l0,0l0.8,0.6l0,0l0.8,0.6l0,0
			l0.8,0.6l0,0l0.8,0.6l0,0l0.8,0.6l0,0l0.8,0.6l0,0l0.8,0.6l0,0l0.8,0.6l0,0l0.8,0.6l0,0l0.8,0.5l0,0l0.9,0.5l0,0l0.9,0.5l0,0
			l0.9,0.5l0,0l0.9,0.5l0,0l0.7,0.4l0.7,0.2l0.7-0.3l0.4-0.7l-0.1-0.8l-0.5-0.6l-0.1,0l-0.7-0.4l-0.8-0.5l0,0l0,0l-0.8-0.5l0,0v0
			l-0.8-0.5l0,0l-0.8-0.5l-0.8-0.5l0,0l0,0l-0.8-0.5l0,0l0,0l-0.8-0.5l0,0l0,0l-0.8-0.6l0,0l0,0l-0.8-0.6l0,0l-0.8-0.6l0,0l0,0
			l-0.8-0.6l-0.8-0.6l-0.8-0.6l0,0l-0.8-0.6l-0.7-0.6l0,0l0,0l-0.7-0.6l-0.7-0.6l0,0l0,0l-0.7-0.6l0,0l0,0l-0.7-0.7l0,0l0,0
			l-0.7-0.7l0,0l-0.7-0.7l0,0l0,0l-0.7-0.7l-0.7-0.7l-0.7-0.7l0,0l-0.7-0.7l0,0l0,0l-0.6-0.7l-0.6-0.7l0,0l-0.6-0.7l0,0l-0.6-0.7v0
			v0l-0.3-0.3l-0.6-0.4L-3687.6,612.5z"/>
		<path id="path40860-4-1-4-6-7-3-9-2-4-03-2-3-3-8-0-8-0-3" inkscape:connector-curvature="0" class="st2" d="M-3571.7,626.1
			L-3571.7,626.1l-0.8,0.7l0,0l-0.8,0.6l0,0l0,0l-0.8,0.6l0,0l0,0l-0.8,0.6l0,0l-0.8,0.6l-0.8,0.6l0,0l0,0l-0.8,0.6l0,0l-0.8,0.6
			l-0.8,0.6l0,0l0,0l-0.8,0.5l0,0l-0.8,0.5l0,0l0,0l-0.8,0.5l-0.9,0.5l0,0l-0.9,0.5v0l0,0l-0.9,0.5l-0.9,0.5l0,0l-0.9,0.5l-0.9,0.5
			l0,0l0,0l-0.9,0.5l0,0l-0.9,0.4h0h0l-0.9,0.4h0v0l-0.9,0.4l0,0l-0.9,0.4h0h0l-0.9,0.4h0h0l-0.9,0.4h0h0l-0.9,0.4h0h0l-0.9,0.4l0,0
			l-0.9,0.4l0,0l-0.9,0.3l0,0h0l-0.4,0.1l-0.6,0.5l-0.2,0.7l0.2,0.7l0.6,0.5l0.8,0l0.1,0l0.4-0.1l0,0l1-0.4l0,0l1-0.4l0,0l1-0.4l0,0
			l0.9-0.4l0,0l0.9-0.4l0,0l0.9-0.4l0,0l0.9-0.4l0,0l0.9-0.4l0,0l0.9-0.4l0,0l0.9-0.5l0,0l0.9-0.5l0,0l0.9-0.5l0,0l0.9-0.5l0,0
			l0.9-0.5l0,0l0.9-0.5l0,0l0.9-0.5l0,0l0.9-0.5l0,0l0.9-0.5l0,0l0.9-0.5l0,0l0.9-0.6l0,0l0.9-0.6l0,0l0.8-0.6l0,0l0.8-0.6l0,0
			l0.8-0.6l0,0l0.8-0.6l0,0l0.8-0.6l0,0l0.8-0.6l0,0l0.8-0.6l0,0l0.8-0.6l0.4-0.6l0-0.8l-0.5-0.6l-0.7-0.2L-3571.7,626.1z"/>
		<path id="path40852-7-3-7-5-5-7-2-6-9-7-0-6-8-0-9-9-08-8" inkscape:connector-curvature="0" class="st2" d="M-3617.5,636.6
			l-0.2,0v0h0l-0.9,0.1l-0.9,0.1l0,0l0,0l-0.9,0.1l-0.9,0.1l0,0l-0.9,0l-0.9,0l0,0l0,0l-0.9,0l-0.9,0v0l0,0h-0.9l-0.9,0v0h0l-0.9,0
			l-0.9,0v0l0,0l-0.9,0h0v0l-0.9-0.1l-0.9-0.1h0v0l-0.9-0.1l-0.9-0.1l0,0l0,0l-0.9-0.1l-0.9-0.1v0h0l-0.9-0.1l-0.9-0.1l-0.9-0.1h0v0
			l-0.9-0.2l-0.9-0.2h0l0,0l-0.9-0.2l-0.9-0.2v0h0l-0.9-0.2l-0.9-0.2v0h0l-0.9-0.2h0v0l-0.9-0.2l-0.9-0.3l-0.6-0.2l-0.8,0l-0.6,0.5
			l-0.2,0.7l0.2,0.7l0.6,0.5l0.1,0l0.6,0.2l0,0l0.9,0.3l0,0l0.9,0.3l0,0l0.9,0.2h0l0.9,0.2h0l0.9,0.2h0l0.9,0.2h0l0.9,0.2h0l0.9,0.2
			h0l0.9,0.2h0l0.9,0.2h0l0.9,0.1h0l0.9,0.1h0l0.9,0.1h0l0.9,0.1h0l0.9,0.1h0l0.9,0.1h0l0.9,0.1h0l0.9,0.1h0l0.9,0h0l0.9,0l0,0
			l0.9,0l0,0l0.9,0l0,0l0.9,0l0,0l0.9,0l0,0l0.9,0l0,0l0.9,0h0l0.9-0.1h0l0.9-0.1h0l0.9-0.1h0l0.9-0.1h0l0.9-0.1h0l0.2,0l0.7-0.3
			l0.4-0.7l-0.1-0.8l-0.5-0.6L-3617.5,636.6L-3617.5,636.6z"/>
	</g>
	<g id="g8130-7-2-2-7-6-9" transform="translate(2916.1911,995.7306)">
		<path id="path40930-7-1-3-9-5-7-3-9-9-4-1-37-5-4-3-7-82-1" inkscape:connector-curvature="0" class="st3" d="M-3685,486
			L-3685,486L-3685,486l-0.1,0.1l-0.9,0.7l0,0l-0.9,0.7l0,0l-0.9,0.8l0,0l-0.9,0.8l0,0l-0.9,0.8l0,0l-0.9,0.8l0,0l-0.8,0.8l0,0
			l-0.8,0.8l0,0l-0.8,0.8l0,0l-0.8,0.8l0,0l-0.8,0.8l0,0l-0.8,0.8l0,0l-0.8,0.9l0,0l-0.8,0.9l0,0l-0.8,0.9l0,0l-0.8,0.9l0,0
			l-0.7,0.9l0,0l-0.7,0.9l0,0l-0.7,0.9l0,0l-0.7,0.9l0,0l-0.7,0.9l0,0l-0.7,0.9l0,0l-0.7,1l0,0l-0.7,1l0,0l-0.7,1l0,0l-0.5,0.8
			l-0.2,0.7l0.3,0.7l0.6,0.4l0.8,0l0.6-0.4l0-0.1l0.5-0.8l0,0l0,0l0.6-0.9l0,0v0l0.7-0.9l0,0l0.7-0.9l0,0l0.7-0.9l0.7-0.9l0.7-0.9
			l0,0v0l0.7-0.9l0,0l0.7-0.9l0,0l0.7-0.9l0,0v0l0.7-0.9l0.8-0.9l0,0l0.8-0.8v0l0,0l0.8-0.8l0.8-0.8l0.8-0.8l0,0l0.8-0.8v0l0,0
			l0.8-0.8l0,0v0l0.8-0.8l0,0l0.8-0.8l0.8-0.8l0.9-0.8l0,0l0,0l0.9-0.7l0,0l0.9-0.7l0.9-0.7l0,0v0l0.9-0.7l0,0l0,0l0.4-0.6l0-0.8
			l-0.5-0.6l-0.7-0.2L-3685,486z"/>
		<path id="path40926-5-3-2-4-0-6-3-8-3-3-8-0-2-9-1-6-3-1" inkscape:connector-curvature="0" class="st3" d="M-3549.8,499.9
			l-0.6,0.5l-0.2,0.7l0.2,0.7l0,0.1l0.2,0.2l0,0l0.7,0.9v0l0,0l0.7,0.9l0,0v0l0.7,0.9l0,0l0.7,0.9v0l0,0l0.7,0.9l0,0v0l0.7,0.9l0,0
			l0.6,0.9v0l0,0l0.6,0.9v0v0l0.6,1l0,0l0.6,1v0l0,0l0.6,1l0.6,1l0,0l0.6,1v0v0l0.6,1l0,0v0l0.6,1l0,0l0.5,1l0.5,1l0,0v0l0.5,1l0,0
			l0.5,1l0.5,1v0v0l0.5,1l0,0l0.5,1l0.5,1.1v0v0l0.4,1.1l0.4,1.1v0v0l0.2,0.5l0.5,0.6l0.7,0.2l0.7-0.3l0.4-0.6v-0.8l0-0.1l-0.2-0.6
			v0l-0.4-1.1v0l-0.5-1.1v0l-0.5-1.1v0l-0.5-1.1l0,0l-0.5-1.1l0,0l-0.5-1.1l0,0l-0.5-1l0,0l-0.5-1l0,0l-0.5-1l0,0l-0.6-1l0,0l-0.6-1
			l0,0l-0.6-1l0,0l-0.6-1l0,0l-0.6-1l0,0l-0.6-1l0,0l-0.6-1l0,0l-0.6-1l0,0l-0.6-1l0,0l-0.7-1l0,0l-0.7-1l0,0l-0.7-1l0,0l-0.7-0.9
			l0,0l-0.7-0.9l0,0l-0.7-0.9l0,0l-0.7-0.9l0,0l-0.2-0.2l-0.6-0.4L-3549.8,499.9z"/>
		<path id="path40946-3-4-1-7-2-0-5-6-3-7-7-0-4-0-8-4-85-9" inkscape:connector-curvature="0" class="st3" d="M-3622.2,473l-1,0
			l0,0l-1.1,0l0,0l-1.1,0l0,0l-1.1,0l0,0l-1.1,0l0,0l-1.1,0.1l0,0l-1.1,0.1l0,0l-1.1,0.1l0,0l-1.1,0.1l0,0l-1.1,0.1l0,0l-1.1,0.1
			l0,0l-1.1,0.1l0,0l-1.1,0.1l0,0l-1,0.2l0,0l-1,0.2l0,0l-1,0.2l0,0l-1,0.2l0,0l-1,0.2l0,0l-1,0.2l0,0l-1,0.2l0,0l-1,0.2l0,0l-1,0.3
			l0,0l-1,0.3l0,0l-1,0.3l0,0l-1,0.3l0,0l-1,0.3l0,0l-1,0.3l0,0l-1,0.3l0,0l-0.5,0.2l-0.6,0.5l-0.2,0.7l0.2,0.7l0.6,0.5l0.8,0l0.1,0
			l0.5-0.2v0l0,0l1-0.3l0,0l1-0.3l0,0v0l1-0.3l1-0.3l0,0v0l1-0.3l0,0l1-0.3l1-0.3v0l0,0l1-0.2l1-0.2v0l0,0l1-0.2l1-0.2l0,0v0l1-0.2
			l0,0l1-0.2l0,0v0l1-0.2v0l0,0l1-0.2l1-0.1v0l0,0l1-0.1l0,0l1-0.1l0,0l0,0l1-0.1l1-0.1v0l0,0l1-0.1l1-0.1v0l0,0l1-0.1l1,0v0l0,0
			l1.1,0l1,0v0l0,0l1.1,0l1,0l0.7-0.2l0.5-0.6l0-0.8l-0.4-0.6L-3622.2,473L-3622.2,473z"/>
		<path id="path40944-6-9-1-9-14-9-0-7-0-3-4-3-5-1-7-3-0-9" inkscape:connector-curvature="0" class="st3" d="M-3593,478.7
			l-0.6,0.4l-0.3,0.7l0.2,0.7l0.6,0.5l0.1,0l0.6,0.2v0l0,0l1,0.4l1,0.4v0l0,0l1,0.4l0,0v0l1,0.4v0l0,0l1,0.4l0,0l0,0l1,0.5l1,0.5
			l0,0v0l0.9,0.5v0l0,0l0.9,0.5l0,0v0l0.9,0.5l0,0l0.9,0.5l0.9,0.5l0.9,0.5l0,0v0l0.9,0.5l0,0v0l0.9,0.6l0.9,0.6v0l0,0l0.9,0.6
			l0.9,0.6l0,0v0l0.9,0.6v0l0.9,0.6v0l0,0l0.8,0.6v0l0,0l0.8,0.6l0,0v0l0.8,0.6l0,0l0.8,0.6l0,0l0.8,0.7l0.8,0.7l0,0v0l0.8,0.7l0,0
			l0.1,0.1l0.7,0.3l0.7-0.2l0.5-0.6l0.1-0.8l-0.4-0.7l-0.1-0.1l-0.1-0.1l0,0l-0.8-0.7l0,0l-0.8-0.7l0,0l-0.8-0.7l0,0l-0.8-0.7l0,0
			l-0.9-0.7l0,0l-0.9-0.6l0,0l-0.9-0.6l0,0l-0.9-0.6l0,0l-0.9-0.6l0,0l-0.9-0.6l0,0l-0.9-0.6l0,0l-0.9-0.6l0,0l-0.9-0.6l0,0
			l-0.9-0.6l0,0l-0.9-0.6l0,0l-0.9-0.5l0,0l-1-0.5l0,0l-1-0.5l0,0l-1-0.5l0,0l-1-0.5l0,0l-1-0.5l0,0l-1-0.5l0,0l-1-0.5l0,0l-1-0.4
			l0,0l-1-0.4l0,0l-1-0.4l0,0l-1-0.4l0,0l-0.6-0.2L-3593,478.7z"/>
		<path id="path40884-2-7-8-6-71-0-8-7-8-4-6-9-0-2-4-0-5-7" inkscape:connector-curvature="0" class="st3" d="M-3538,575.8
			l-0.4,0.7l0,0.1l-0.1,0.5v0l0,0l-0.2,1.1l-0.2,1.1l0,0v0l-0.2,1.1l-0.2,1.1h0v0l-0.2,1.1l-0.3,1.1l-0.3,1.1l0,0l-0.3,1.1l-0.3,1.1
			v0v0l-0.3,1.1v0h0l-0.3,1.1l-0.3,1v0h0l-0.4,1l-0.4,1v0v0l-0.4,1l-0.4,1v0v0l-0.4,1l-0.4,1h0v0l-0.4,1v0l0,0l-0.4,1v0v0l-0.5,1
			l0,0l0,0l-0.5,1l-0.5,1l-0.5,1l0,0l0,0l-0.5,1l0,0l0,0l-0.5,0.9l0,0l-0.3,0.5l-0.2,0.7l0.3,0.7l0.7,0.4l0.8-0.1l0.6-0.5l0-0.1
			l0.3-0.5l0,0l0.5-1l0,0l0.5-1l0,0l0.5-1l0,0l0.5-1l0,0l0.5-1l0,0l0.5-1l0,0l0.5-1l0,0l0.4-1l0,0l0.4-1l0,0l0.4-1l0,0l0.4-1l0,0
			l0.4-1.1l0,0l0.4-1.1l0,0l0.4-1.1l0,0l0.4-1.1l0,0l0.3-1.1l0,0l0.3-1.1l0,0l0.3-1.1l0,0l0.3-1.1l0,0l0.3-1.1v0l0.3-1.1v0l0.2-1.1
			v0l0.2-1.1v0l0.2-1.1v0l0.2-1.1v0l0.2-1.1v0l0.1-0.5l-0.1-0.8l-0.5-0.5l-0.7-0.1L-3538,575.8z"/>
		<path id="path40846-1-5-9-3-1-3-2-4-5-4-5-4-5-0-1-3-9-0" inkscape:connector-curvature="0" class="st3" d="M-3656.4,640l-0.6,0.4
			l-0.3,0.7l0.2,0.7l0.6,0.5l0.1,0l0.8,0.3l0,0l1,0.4l0,0l1,0.4l0,0l1,0.4l0,0l1,0.3l0,0l1,0.3l0,0l1.1,0.3l0,0l1,0.3l0,0l1,0.3l0,0
			l1,0.3h0l1,0.3h0l1,0.2h0l1,0.2h0l1,0.2h0l1,0.2h0l1,0.2h0l1,0.2h0l1,0.2h0l1,0.1h0l1,0.1h0l1,0.1h0l1,0.1h0l1,0.1h0l1,0.1h0
			l1,0.1l0,0l1,0h0l1,0l0,0l1,0l0,0h0.4l0.7-0.2l0.5-0.6l0-0.8l-0.4-0.6l-0.7-0.3h-0.1h-0.4v0l0,0l-1,0l0,0v0l-1,0l0,0l0,0l-1,0h0v0
			l-1-0.1l-1-0.1h0v0l-1-0.1l-1-0.1l0,0l0,0l-1-0.1l-1-0.1v0h0l-1-0.1l-1-0.2l-1-0.2h0v0l-1-0.2l-1-0.2l0,0l0,0l-1-0.2l-1-0.2
			l-1-0.2l-1-0.3l-1-0.3h0v0l-1-0.3l-1-0.3h0h0l-1-0.3l-1-0.3l-1-0.3h0h0l-1-0.3l-1-0.4h0h0l-1-0.4l-0.8-0.3L-3656.4,640z"/>
		<path id="path40878-7-2-9-1-4-1-9-6-3-2-8-8-7-0-6-0-2-9" inkscape:connector-curvature="0" class="st3" d="M-3544.3,607.2
			l-0.6,0.5l0,0.1l-0.2,0.4l0,0l0,0l-0.6,1l0,0l0,0l-0.6,1l0,0l-0.6,0.9l-0.6,1l0,0l0,0l-0.6,0.9l-0.6,0.9l0,0l0,0l-0.6,0.9
			l-0.7,0.9l0,0l-0.7,0.9l0,0l0,0l-0.7,0.9l-0.7,0.9l0,0l-0.7,0.9l0,0l-0.7,0.9l-0.7,0.9l-0.7,0.9l0,0l-0.7,0.8l0,0l-0.7,0.8l0,0
			l0,0l-0.8,0.8l-0.8,0.8l0,0l-0.8,0.8l0,0l-0.8,0.8l0,0l0,0l-0.8,0.8l0,0l0,0l-0.8,0.8l0,0l-0.8,0.8l-0.8,0.7l0,0l0,0l-0.8,0.7l0,0
			h0l-0.4,0.7l0.1,0.8l0.5,0.6l0.7,0.2l0.7-0.3l0.1-0.1l0,0l0,0l0.8-0.8l0,0l0.8-0.8l0,0l0.8-0.8l0,0l0.8-0.8l0,0l0.8-0.8l0,0
			l0.8-0.8l0,0l0.8-0.8l0,0l0.8-0.8l0,0l0.8-0.8l0,0l0.8-0.8l0,0l0.8-0.9l0,0l0.7-0.9l0,0l0.7-0.9l0,0l0.7-0.9l0,0l0.7-0.9l0,0
			l0.7-0.9l0,0l0.7-0.9l0,0l0.7-0.9l0,0l0.7-0.9l0,0l0.7-0.9l0,0l0.6-0.9l0,0l0.6-1l0,0l0.6-1l0,0l0.6-1l0,0l0.6-1l0,0l0.6-1l0,0
			l0.2-0.4l0.2-0.7l-0.3-0.7l-0.6-0.4L-3544.3,607.2z"/>
		<path id="path40862-9-8-1-2-2-7-0-9-6-0-6-0-3-6-3-9-6-6" inkscape:connector-curvature="0" class="st3" d="M-3698.8,612l-0.6,0.4
			l-0.3,0.7l0.2,0.7l0,0.1l0.3,0.4l0,0l0.6,0.9l0,0l0.6,0.9l0,0l0.7,0.9l0,0l0.7,0.9l0,0l0.7,0.9l0,0l0.7,0.8l0,0l0.7,0.8l0,0
			l0.7,0.8l0,0l0.7,0.8l0,0l0.7,0.8l0,0l0.7,0.8l0,0l0.7,0.8l0,0l0.8,0.8l0,0l0.8,0.8l0,0l0.8,0.8l0,0l0.8,0.8l0,0l0.8,0.8l0,0
			l0.8,0.7l0,0l0.8,0.7l0,0l0.8,0.7l0,0l0.8,0.7l0,0l0.8,0.7l0,0l0.9,0.7l0,0l0.9,0.7l0,0l0.9,0.7l0,0l0.9,0.7l0,0l0.9,0.7l0,0
			l0.1,0.1l0.7,0.2l0.7-0.2l0.5-0.6l0-0.8l-0.4-0.6l-0.1,0l-0.1-0.1l0,0l0,0l-0.9-0.6l0,0l0,0l-0.9-0.6l-0.9-0.7l0,0l-0.8-0.7l0,0h0
			l-0.8-0.7l0,0l-0.8-0.7l0,0l0,0l-0.8-0.7l-0.8-0.7l0,0l-0.8-0.7l-0.8-0.7l0,0l0,0l-0.8-0.7l0,0l-0.8-0.7l0,0l-0.8-0.8l0,0l0,0
			l-0.7-0.8l0,0l0,0l-0.7-0.8l0,0l-0.7-0.8l0,0l0,0l-0.7-0.8l0,0l0,0l-0.7-0.8l0,0l-0.7-0.8l0,0l-0.7-0.8v0l0,0l-0.7-0.8l-0.7-0.8
			l0,0l-0.7-0.8l0,0l0,0l-0.7-0.8l0,0l0,0l-0.6-0.9l0,0l-0.6-0.9l-0.6-0.9l-0.3-0.4l-0.6-0.5L-3698.8,612z"/>
		<path id="path40950-0-2-4-9-20-2-6-0-7-6-2-8-2-3-8-2-8-6" inkscape:connector-curvature="0" class="st3" d="M-3612.4,469.5
			l-0.5,0.5l-0.1,0.8l0.3,0.7l0.7,0.4l0.1,0l1.1,0.2l0,0l1.1,0.2l1.1,0.2l0,0v0l1.1,0.2l1.1,0.2v0l0,0l1.1,0.2l1.1,0.2v0l0,0
			l1.1,0.2v0l1.1,0.3l1.1,0.3l0,0l0,0l1.1,0.3l1.1,0.3l0,0l0,0l1.1,0.3l0,0l1.1,0.3v0l0,0l1.1,0.4l0,0v0l1.1,0.4l1.1,0.4l0,0l0,0
			l1.1,0.4l0,0l1.1,0.4l0,0l0,0l1.1,0.4v0l1.1,0.4v0l0,0l1,0.4l0,0v0l1,0.5l1,0.5l0,0l0,0l1,0.5l0,0l1,0.5v0v0l0.8,0.1l0.7-0.3
			l0.4-0.7l-0.1-0.8l-0.5-0.6l-0.1,0l0,0l0,0l-1-0.5l0,0l-1-0.5l0,0l-1-0.5l0,0l-1.1-0.5l0,0l-1.1-0.5l0,0l-1.1-0.4l0,0l-1.1-0.4
			l0,0l-1.1-0.4l0,0l-1.1-0.4l0,0l-1.1-0.4l0,0l-1.1-0.4l0,0l-1.1-0.4l0,0l-1.1-0.4l0,0l-1.1-0.3l0,0l-1.1-0.3l0,0l-1.1-0.3l0,0
			l-1.1-0.3l0,0l-1.1-0.3l0,0l-1.1-0.3l0,0l-1.1-0.2l0,0l-1.1-0.2l0,0l-1.1-0.2l0,0l-1.1-0.2l0,0l-1.1-0.2l0,0l-1.1-0.2l0,0
			l-1.1-0.2L-3612.4,469.5z"/>
		<path id="path40954-7-7-9-7-0-0-5-4-2-8-6-2-7-9-5-5-5-2" inkscape:connector-curvature="0" class="st3" d="M-3599.4,467.4
			l-0.6,0.5l-0.2,0.7l0.2,0.7l0.6,0.5l0.1,0l0.8,0.2l1.1,0.3v0l0,0l1.2,0.3l1.2,0.4l1.2,0.4l0,0v0l1.1,0.4l1.1,0.4v0l0,0l1.1,0.4
			l0,0l0,0l1.1,0.4l0,0l0,0l1.1,0.4l1.1,0.5v0l0,0l1.1,0.5l1.1,0.5l1.1,0.5l0,0v0l1.1,0.5l0,0l1.1,0.5v0l1.1,0.5v0l0,0l1,0.5l0,0v0
			l1,0.6l1,0.6l0,0l0,0l1,0.6v0l0,0l1,0.6l0,0l1,0.6l0,0v0l1,0.6l1,0.6v0l0,0l0.2,0.1l0.7,0.2l0.7-0.3l0.4-0.6l0-0.8l-0.4-0.6
			l-0.1,0l-0.2-0.1l0,0l-1-0.6l0,0l-1-0.6l0,0l-1-0.6l0,0l-1-0.6l0,0l-1-0.6l0,0l-1-0.6l0,0l-1.1-0.6l0,0l-1.1-0.6l0,0l-1.1-0.5l0,0
			l-1.1-0.5l0,0l-1.1-0.5l0,0l-1.1-0.5l0,0l-1.1-0.5l0,0l-1.1-0.5l0,0l-1.1-0.5l0,0l-1.1-0.5l0,0l-1.1-0.4l0,0l-1.1-0.4l0,0
			l-1.2-0.4l0,0l-1.2-0.4l0,0l-1.2-0.4l0,0l-1.2-0.4l0,0l-1.2-0.4l0,0l-1.2-0.3l0,0l-0.8-0.2L-3599.4,467.4z"/>
		<path id="path40952-1-2-5-4-9-2-0-8-6-3-9-3-2-0-5-4-2-8" inkscape:connector-curvature="0" class="st3" d="M-3629,464.4l-1.2,0.1
			l0,0l-1.2,0.1l0,0l-1.2,0.1l0,0l-1.2,0.1l0,0l-1.2,0.1l0,0l-1.2,0.1l0,0l-1.2,0.2l0,0l-1.2,0.2l0,0l-1.2,0.2l0,0l-1.1,0.2l0,0
			l-1.1,0.2l0,0l-1.1,0.2l0,0l-1.1,0.2l0,0l-1.1,0.3l0,0l-1.1,0.3l0,0l-1.1,0.3l0,0l-1.1,0.3l0,0l-1.1,0.3l0,0l-1.1,0.3l0,0
			l-1.1,0.3l0,0l-1.1,0.4l0,0l-1.1,0.4l0,0l-1.1,0.4l0,0l-1.1,0.4l0,0l-1.1,0.4l0,0l-1,0.4l-0.6,0.5l-0.2,0.7l0.2,0.7l0.6,0.4l0.8,0
			l0.1,0l1-0.4l0,0l1.1-0.4l1.1-0.4l0,0l1.1-0.4v0l0,0l1.1-0.4l0,0h0l1.1-0.3l0,0v0l1.1-0.3l0,0l1.1-0.3l1.1-0.3l0,0l0,0l1.1-0.3
			l1.1-0.3v0l0,0l1.1-0.3l1.1-0.3l0,0v0l1.1-0.2l0,0l1.1-0.2l0,0v0l1.1-0.2l0,0l1.1-0.2l1.1-0.2v0l0,0l1.1-0.2l0,0l1.1-0.2v0l0,0
			l1.1-0.1l1.1-0.1l0,0l0,0l1.1-0.1l1.1-0.1v0l0,0l1.2-0.1l1.2-0.1l0.7-0.3l0.4-0.6l0-0.8l-0.5-0.6L-3629,464.4L-3629,464.4z"/>
		<path id="path40948-6-8-6-3-67-9-6-9-9-8-1-1-1-8-0-0-8-8" inkscape:connector-curvature="0" class="st3" d="M-3642,470.5l-0.1,0
			l0,0l-1.1,0.2l0,0l-1.1,0.2l0,0l-1.1,0.3l0,0l-1.1,0.3l0,0l-1.1,0.3l0,0l-1.1,0.3l0,0l-1.1,0.3l0,0l-1.1,0.3l0,0l-1.1,0.3l0,0
			l-1.1,0.3l0,0l-1,0.4l0,0l-1,0.4l0,0l-1,0.4l0,0l-1,0.4l0,0l-1,0.4l0,0l-1,0.4l0,0l-1,0.4l0,0l-1,0.4l0,0l-1,0.5l0,0l-1,0.5l0,0
			l-1,0.5l0,0l-1,0.5l0,0l-1,0.5l0,0l-1,0.5l0,0l-1,0.5l0,0l-1,0.5l0,0l-1,0.5l0,0l-0.1,0.1l-0.5,0.6l-0.1,0.8l0.4,0.7l0.7,0.3
			l0.8-0.1l0.1,0l0.1-0.1v0l0,0l0.9-0.5l0,0v0l0.9-0.5l0,0l0.9-0.5v0l0,0l1-0.5l0,0v0l1-0.5l0,0l1-0.5l1-0.5l1-0.5l0,0l1-0.4l0,0
			l0,0l1-0.4l0,0l0,0l1-0.4l0,0l1-0.4l0,0l0,0l1-0.4l0,0l1-0.4v0l0,0l1-0.4l1-0.4l0,0l1-0.3l0,0v0l1-0.3l1-0.3l0,0v0l1-0.3l0,0
			l1-0.3l0,0v0l1-0.3l0,0l0,0l1-0.3l1.1-0.3v0l0,0l1-0.3l0,0l1.1-0.2v0l0,0l1.1-0.2l0,0l0.1,0l0.7-0.4l0.3-0.7l-0.1-0.8l-0.5-0.5
			L-3642,470.5L-3642,470.5z"/>
		<path id="path40934-3-1-7-2-98-5-2-7-6-05-1-4-3-3-1-5-3-1" inkscape:connector-curvature="0" class="st3" d="M-3559.4,495.9
			l-0.6,0.5l-0.2,0.7l0.3,0.7l0.1,0.1l0.3,0.3l0,0v0l0.8,0.8l0,0l0.8,0.8l0.7,0.8l0.7,0.8l0,0l0,0l0.7,0.8l0.7,0.8v0l0,0l0.7,0.8
			l0.7,0.9l0,0l0.7,0.9v0l0,0l0.7,0.9l0,0v0l0.7,0.9l0,0l0.6,0.9v0l0,0l0.6,0.9l0,0v0l0.6,0.9l0,0l0.6,0.9l0.6,0.9v0v0l0.6,0.9l0,0
			l0.6,0.9l0.6,0.9v0v0l0.6,0.9l0,0l0.5,0.9v0l0,0l0.5,0.9l0,0v0l0.5,1l0,0l0.5,1l0,0l0,0l0.5,1l0,0v0l0.5,1l0,0l0.3,0.6l0.5,0.5
			l0.7,0.1l0.7-0.3l0.4-0.7l-0.1-0.8l0-0.1l-0.3-0.6l0,0l-0.5-1l0,0l-0.5-1l0,0l-0.5-1l0,0l-0.5-1l0,0l-0.6-1l0,0l-0.6-1l0,0l-0.6-1
			l0,0l-0.6-1l0,0l-0.6-0.9l0,0l-0.6-0.9l0,0l-0.6-0.9l0,0l-0.6-0.9l0,0l-0.6-0.9l0,0l-0.7-0.9l0,0l-0.7-0.9l0,0l-0.7-0.9l0,0
			l-0.7-0.9l0,0l-0.7-0.9l0,0l-0.7-0.9l0,0l-0.7-0.9l0,0l-0.7-0.9l0,0l-0.7-0.8l0,0l-0.7-0.8l0,0l-0.8-0.8l0,0l-0.8-0.8l0,0
			l-0.8-0.8l0,0l-0.3-0.3l-0.7-0.4L-3559.4,495.9z"/>
		<path id="path40920-4-2-3-9-96-3-9-2-4-1-6-4-4-8-2-9-67-6" inkscape:connector-curvature="0" class="st3" d="M-3678.9,492.4
			L-3678.9,492.4l-0.7,0.6l0,0l-0.8,0.7l0,0l-0.8,0.7l0,0l-0.8,0.7l0,0l-0.8,0.7l0,0l-0.8,0.7l0,0l-0.8,0.7l0,0l-0.8,0.7l0,0
			l-0.8,0.7l0,0l-0.8,0.7l0,0l-0.7,0.8l0,0l-0.7,0.8l0,0l-0.7,0.8l0,0l-0.7,0.8l0,0l-0.7,0.8l0,0l-0.7,0.8l0,0l-0.7,0.8l0,0
			l-0.7,0.8l0,0l-0.7,0.8l0,0l-0.7,0.8l0,0l-0.7,0.8l0,0l-0.6,0.8l0,0l-0.6,0.9l0,0l-0.6,0.9l0,0l-0.6,0.9l0,0l-0.6,0.9l0,0
			l-0.6,0.9l0,0l-0.6,0.9l0,0l-0.4,0.6l-0.2,0.7l0.3,0.7l0.6,0.4l0.8,0l0.6-0.5l0-0.1l0.4-0.6l0.6-0.9v0l0,0l0.6-0.9v0l0,0l0.6-0.9
			l0,0v0l0.6-0.9l0.6-0.8l0,0l0.6-0.8v0l0,0l0.6-0.8l0.6-0.8l0,0l0,0l0.7-0.8l0.7-0.8l0.7-0.8l0,0v0l0.7-0.8l0.7-0.8v0l0,0l0.7-0.8
			v0l0,0l0.7-0.8l0,0l0,0l0.7-0.7l0,0l0.7-0.7h0l0,0l0.7-0.7l0,0l0,0l0.7-0.7l0.7-0.7l0,0l0.8-0.7l0.8-0.7l0.8-0.7l0,0l0.8-0.7l0,0
			l0.8-0.7l0,0l0,0l0.8-0.7l0.8-0.7l0,0l0.7-0.5l0.4-0.6l0-0.8l-0.5-0.6l-0.7-0.2L-3678.9,492.4z"/>
		<path id="path40916-0-3-9-3-0-8-0-5-0-0-9-5-9-7-6-4-8-5" inkscape:connector-curvature="0" class="st3" d="M-3694,500.6
			L-3694,500.6l-0.5,0.6l0,0l-0.7,0.8l0,0l-0.7,0.9l0,0l-0.7,0.9l0,0l-0.7,0.9l0,0l-0.7,0.9l0,0l-0.7,0.9l0,0l-0.7,0.9l0,0l-0.7,0.9
			l0,0l-0.6,0.9l0,0l-0.6,0.9l0,0l-0.6,0.9l0,0l-0.6,0.9l0,0l-0.6,1l0,0l-0.6,1l0,0l-0.6,1l0,0l-0.6,1l0,0l-0.6,1l0,0l-0.5,1l0,0
			l-0.5,1l0,0l-0.5,1l0,0l-0.5,1l0,0l-0.5,1l0,0l-0.5,1l0,0l-0.5,1l0,0l-0.5,1.1l0,0l-0.4,1.1l0,0l-0.1,0.2l-0.1,0.8l0.4,0.7
			l0.7,0.3l0.7-0.2l0.5-0.6l0-0.1l0.1-0.2l0.4-1v0v0l0.4-1v0v0l0.5-1l0.5-1v0v0l0.5-1l0,0l0.5-1l0.5-1l0.5-1l0,0v0l0.5-1l0,0l0.5-1
			l0.5-1v0l0,0l0.6-0.9l0,0v0l0.6-0.9l0,0v0l0.6-0.9l0.6-0.9v0l0,0l0.6-0.9l0,0l0,0l0.6-0.9l0,0v0l0.6-0.9l0,0l0.6-0.9l0.6-0.9v0
			l0,0l0.7-0.9l0.7-0.9l0,0l0.7-0.8l0,0l0.7-0.9l0.7-0.8l0,0v0l0.7-0.8l0,0v0l0.4-0.5l0.3-0.7l-0.2-0.7l-0.6-0.5l-0.8-0.1
			L-3694,500.6z"/>
		<path id="path40912-5-9-2-5-9-8-4-0-6-1-4-1-4-3-4-6-7-7" inkscape:connector-curvature="0" class="st3" d="M-3548.9,517.7
			l-0.3,0.7l0.1,0.8l0,0.1l0.3,0.5l0.5,0.9l0,0l0.5,0.9l0.5,0.9l0.5,0.9l0,0l0.5,0.9l0.4,0.9v0l0,0l0.4,0.9l0,0l0.4,0.9v0v0l0.4,0.9
			v0l0.4,1l0.4,1v0l0.4,1v0l0.4,1l0,0v0l0.4,1v0v0l0.4,1l0.3,1v0l0,0l0.3,1v0l0.3,1v0v0l0.3,1l0.3,1l0.3,1l0,0l0.3,1l0.3,1l0,0v0
			l0.2,1v0l0.2,1l0,0v0l0.2,1v0l0.2,1v0h0l0.1,0.7l0.4,0.7l0.7,0.3l0.8-0.1l0.5-0.5l0.1-0.7l0-0.1l-0.1-0.7v0l-0.2-1v0l-0.2-1v0
			l-0.2-1v0l-0.2-1v0l-0.3-1v0l-0.3-1v0l-0.3-1v0l-0.3-1v0l-0.3-1v0l-0.3-1v0l-0.3-1v0l-0.3-1v0l-0.4-1v0l-0.4-1v0l-0.4-1v0l-0.4-1
			v0l-0.4-1v0l-0.4-1v0l-0.4-1l0,0l-0.4-1v0l-0.5-1l0,0l-0.5-1l0,0l-0.5-1l0,0l-0.5-0.9l0,0l-0.5-0.9l0,0l-0.5-0.9l0,0l-0.5-0.9l0,0
			l-0.3-0.5l-0.6-0.5l-0.8-0.1L-3548.9,517.7z"/>
		<path id="path40910-5-7-4-5-3-6-2-9-8-7-4-7-1-1-8-9-2-9" inkscape:connector-curvature="0" class="st3" d="M-3553.6,516.9
			l-0.7,0.4l-0.3,0.7l0.1,0.7l0,0.1l0.3,0.5l0.5,0.9l0,0l0.5,0.9l0.5,0.9l0,0l0,0l0.5,0.9l0,0l0.5,0.9v0l0,0l0.5,0.9l0.5,0.9l0,0
			l0.4,0.9l0.4,0.9l0.4,0.9l0,0l0.4,0.9l0.4,0.9v0l0.4,0.9l0.4,0.9v0v0l0.4,0.9v0l0.4,0.9v0l0.3,0.9l0.3,0.9v0l0.3,0.9v0v0l0.3,0.9
			l0.3,1v0v0l0.3,1l0.3,1l0.3,0.9v0v0l0.3,1v0l0,0l0.2,1v0v0l0.2,1l0.2,1l0,0v0l0.2,1v0l0,0.2l0.4,0.7l0.7,0.3l0.8-0.1l0.5-0.5
			l0.1-0.7l0-0.1l0-0.2v0l-0.2-1v0l-0.2-1v0l-0.2-1v0l-0.2-1v0l-0.3-1v0l-0.3-1v0l-0.3-1v0l-0.3-1v0l-0.3-1v0l-0.3-1v0l-0.3-1v0
			l-0.3-1v0l-0.4-1v0l-0.4-0.9v0l-0.4-0.9v0l-0.4-0.9v0l-0.4-0.9v0l-0.4-0.9v0l-0.4-0.9l0,0l-0.4-0.9l0,0l-0.4-0.9l0,0l-0.4-0.9l0,0
			l-0.5-0.9l0,0l-0.5-0.9l0,0l-0.5-0.9l0,0l-0.5-0.9l0,0l-0.5-0.9l0,0l-0.5-0.9l0,0l-0.5-0.9l0,0l-0.3-0.5l-0.6-0.5L-3553.6,516.9z"
			/>
		<path id="path40904-5-8-9-1-9-6-0-0-9-0-7-1-9-0-5-2-6-3" inkscape:connector-curvature="0" class="st3" d="M-3533.1,549.1
			l-0.6,0.5l-0.2,0.7l0,0.1l0.1,0.5h0v0l0.1,1.1v0l0.1,1.1l0,0v0l0.1,1.1l0.1,1.1v0l0.1,1.1l0.1,1.1h0v0l0.1,1.1l0,1.1l0,0l0,0
			l0,1.1l0,1.1h0l0,0v1.1l0,1.1l0,0l0,0l0,1.1v0h0l0,1.1l-0.1,1.1l0,0l-0.1,1.1l-0.1,1.1v0l0,0l-0.1,1.1l-0.1,1.1l0,0v0l-0.1,1.1
			l-0.1,1.1h0v0l-0.2,1.1h0l-0.2,1.1l-0.2,1.1v0l0,0l-0.2,1.1l-0.2,1l0.1,0.8l0.5,0.6l0.7,0.2l0.7-0.3l0.4-0.6l0-0.1l0.2-1v0
			l0.2-1.1v0l0.2-1.1v0l0.2-1.1v0l0.2-1.1v0l0.1-1.1v0l0.1-1.1v0l0.1-1.1v0l0.1-1.1v0l0.1-1.1v0l0.1-1.1v0l0.1-1.1v0l0-1.1l0,0
			l0-1.1l0,0l0-1.1l0,0v-1.1v0l0-1.1l0,0l0-1.1v0l0-1.1v0l-0.1-1.1v0l-0.1-1.1v0l-0.1-1.1v0l-0.1-1.1v0l-0.1-1.1v0l-0.1-1.1v0
			l-0.1-1.1v0l-0.1-0.6l-0.3-0.7l-0.7-0.4L-3533.1,549.1z"/>
		<path id="path40898-9-1-9-7-5-7-3-1-4-3-4-6-5-0-6-2-6-7" inkscape:connector-curvature="0" class="st3" d="M-3527.9,555.1
			l-0.6,0.5l-0.2,0.7v0.1l0.1,1h0l0,0l0.1,1.2v0l0,1.2l0,0l0,0l0,1.2v0l0,0l0,1.2h0v0v1.2l0,0l0,1.2v0l0,1.2v0l0,0l0,1.2l-0.1,1.2v0
			h0l-0.1,1.2l-0.1,1.2v0l0,0l-0.1,1.2l-0.1,1.2l0,0v0l-0.1,1.2l-0.1,1.2h0v0l-0.2,1.2v0h0l-0.2,1.2l-0.2,1.2v0l0,0l-0.2,1.2
			l-0.2,1.2l0,0v0l-0.2,1.2l-0.2,1.2h0v0l-0.3,1.2v0l0,0l-0.3,1.2l-0.1,0.2l0,0.8l0.5,0.6l0.7,0.2l0.7-0.2l0.4-0.6l0-0.1l0.1-0.2
			l0,0l0.3-1.2v0l0.3-1.2v0l0.3-1.2v0l0.2-1.2v0l0.2-1.2v0l0.2-1.2v0l0.2-1.2v0l0.2-1.2v0l0.2-1.2v0l0.1-1.2v0l0.1-1.2v0l0.1-1.2v0
			l0.1-1.2v0l0.1-1.2v0l0.1-1.2v0l0.1-1.2v0l0-1.2l0,0l0-1.2l0,0l0-1.2v0v-1.2l0,0l0-1.2l0,0l0-1.2l0,0l0-1.2l0,0l-0.1-1.2l0,0
			l-0.1-1l-0.3-0.7l-0.6-0.4L-3527.9,555.1z"/>
		<path id="path40870-5-6-4-0-75-7-0-0-2-2-0-3-7-5-2-4-2-4" inkscape:connector-curvature="0" class="st3" d="M-3542.4,612.7
			l-0.6,0.5l0,0.1l-0.1,0.2l-0.6,1l0,0l-0.7,1l-0.7,1l0,0l0,0l-0.7,1l-0.7,0.9l0,0l-0.7,1l-0.7,0.9l0,0l0,0l-0.7,0.9l0,0l0,0
			l-0.7,0.9l-0.7,0.9l-0.7,0.9l0,0v0l-0.8,0.9l-0.8,0.9l0,0l-0.8,0.9l0,0l0,0l-0.8,0.9l-0.8,0.8l-0.8,0.8l0,0l-0.8,0.8l0,0l0,0
			l-0.8,0.8l0,0l0,0l-0.8,0.8l0,0l-0.8,0.8h0l0,0l-0.9,0.8l0,0h0l-0.9,0.8l-0.9,0.8l0,0l-0.9,0.8h0h0l0,0l-0.4,0.6l0,0.8l0.5,0.6
			l0.7,0.2l0.7-0.2l0.1,0l0,0l0,0l0.9-0.8l0,0l0.9-0.8l0,0l0.9-0.8l0,0l0.9-0.8l0,0l0.9-0.8l0,0l0.9-0.8l0,0l0.8-0.8l0,0l0.8-0.8
			l0,0l0.8-0.9l0,0l0.8-0.9l0,0l0.8-0.9l0,0l0.8-0.9l0,0l0.8-0.9l0,0l0.8-0.9l0,0l0.8-0.9l0,0l0.8-0.9l0,0l0.7-0.9l0,0l0.7-0.9l0,0
			l0.7-1l0,0l0.7-1l0,0l0.7-1l0,0l0.7-1l0,0l0.7-1l0,0l0.7-1l0,0l0.7-1l0,0l0.1-0.2l0.2-0.7l-0.3-0.7l-0.6-0.4L-3542.4,612.7z"/>
		<path id="path40858-7-7-9-0-9-3-2-1-7-0-2-7-4-0-5-7-9-5" inkscape:connector-curvature="0" class="st3" d="M-3566.6,627.5
			L-3566.6,627.5l-0.7,0.6l0,0l-0.8,0.7h0h0l-0.8,0.7l0,0l0,0l-0.8,0.7l0,0l-0.8,0.7l-0.8,0.6l0,0l0,0l-0.8,0.6l0,0l-0.9,0.6
			l-0.9,0.6l0,0l0,0l-0.9,0.6l0,0l-0.9,0.6l0,0l0,0l-0.9,0.6l-0.9,0.6l0,0l-0.9,0.6l0,0l0,0l-0.9,0.6l-0.9,0.5l0,0l-0.9,0.5
			l-0.9,0.5l-0.9,0.5l0,0l-0.9,0.5l-0.9,0.5l-1,0.5l-0.9,0.5h0h0l-0.9,0.5h0v0l-1,0.4l-1,0.4h0h0l-1,0.4l0,0l-1,0.4l-0.1,0.1
			l-0.6,0.5l-0.2,0.7l0.3,0.7l0.6,0.4l0.8,0l0.1,0l0.1-0.1l0,0l1-0.4l0,0l1-0.4l0,0l1-0.4l0,0l1-0.5l0,0l1-0.5l0,0l1-0.5l0,0l1-0.5
			l0,0l1-0.5l0,0l0.9-0.5l0,0l0.9-0.5l0,0l0.9-0.5l0,0l0.9-0.5l0,0l0.9-0.6l0,0l0.9-0.6l0,0l0.9-0.6l0,0l0.9-0.6l0,0l0.9-0.6l0,0
			l0.9-0.6l0,0l0.9-0.6l0,0l0.9-0.6l0,0l0.9-0.6l0,0l0.9-0.7l0,0l0.9-0.7l0,0l0.8-0.7l0,0l0.8-0.7l0,0l0.8-0.7l0,0l0.8-0.7l0,0
			l0.7-0.6l0.4-0.7l-0.1-0.8l-0.5-0.6l-0.7-0.2L-3566.6,627.5z"/>
		<path id="path40854-4-2-5-3-3-3-4-5-4-3-9-8-1-3-2-7-7-5" inkscape:connector-curvature="0" class="st3" d="M-3705,619l-0.6,0.4
			l-0.3,0.7l0.2,0.7l0,0.1l0.6,0.8l0,0l0.6,0.8l0,0l0.6,0.8l0,0l0.6,0.8l0,0l0.6,0.8l0,0l0.6,0.8l0,0l0.7,0.8l0,0l0.7,0.8l0,0
			l0.7,0.8l0,0l0.7,0.7l0,0l0.3,0.3l0.7,0.4l0.8-0.1l0.6-0.5l0.2-0.7l-0.3-0.7l-0.1-0.1l-0.3-0.3l-0.7-0.7l0,0l-0.7-0.7l0,0l0,0
			l-0.7-0.7h0l-0.6-0.7l0,0l0,0l-0.6-0.8l0,0l-0.6-0.8l0,0l0,0l-0.6-0.8l0,0l-0.6-0.8l-0.6-0.8l0,0l-0.6-0.8l-0.6-0.4L-3705,619z"/>
		<path id="path40848-2-0-3-4-04-9-5-5-6-9-3-7-2-1-6-5-0-7" inkscape:connector-curvature="0" class="st3" d="M-3588.6,646.6
			L-3588.6,646.6l-0.4,0.2l-1,0.4l0,0l-1,0.4h0h0l-1,0.4l-1,0.4l0,0l-1,0.4l0,0h0l-1,0.4l0,0l-1,0.4v0h0l-1.1,0.4l-1.1,0.3h0l0,0
			l-1.1,0.3l-1.1,0.3h0v0l-1.1,0.3h0l-1.1,0.3l-1.1,0.3v0h0l-1.1,0.3l-1.1,0.2h0v0l-1.1,0.2l-1.1,0.2h0v0l-1.1,0.2h0l-1.1,0.2h0v0
			l-1.1,0.2v0h0l-1.1,0.2h0l-1.1,0.2v0h0l-1.1,0.1h0l-1.1,0.1l0,0h0l-1.1,0.1l-0.3,0l-0.7,0.3l-0.4,0.6l0,0.8l0.5,0.6l0.7,0.2l0.1,0
			l0.3,0h0l1.1-0.1h0l1.1-0.1h0l1.1-0.1h0l1.1-0.2h0l1.1-0.2h0l1.1-0.2h0l1.1-0.2h0l1.1-0.2h0l1.1-0.2h0l1.1-0.2h0l1.1-0.3h0
			l1.1-0.3h0l1.1-0.3h0l1.1-0.3h0l1.1-0.3h0l1.1-0.3h0l1.1-0.3h0l1.1-0.3h0l1.1-0.4l0,0l1.1-0.4l0,0l1.1-0.4l0,0l1.1-0.4l0,0
			l1.1-0.4l0,0l1.1-0.4l0,0l1-0.4l0,0l1-0.4l0,0l0.3-0.1l0.6-0.5l0.2-0.7l-0.3-0.7l-0.6-0.4L-3588.6,646.6z"/>
		<path id="path40844-3-2-0-6-9-7-4-2-4-9-5-0-2-8-9-4-3-4" inkscape:connector-curvature="0" class="st3" d="M-3675.7,640.6
			l-0.4,0.6l0,0.8l0.5,0.6l0.1,0l0.6,0.4l0,0l1,0.6l0,0l1,0.6l0,0l1,0.6l0,0l1,0.6l0,0l1,0.6l0,0l1,0.5l0,0l1,0.5l0,0l1.1,0.5l0,0
			l1.1,0.5l0,0l1.1,0.5l0,0l1.1,0.5l0,0l1.1,0.5l0,0l1.1,0.5l0,0l1.1,0.4l0,0l1.1,0.4l0,0l1.1,0.4l0,0l1.1,0.4l0,0l1.1,0.4l0,0
			l1.1,0.4l0,0l1.2,0.4l0,0l1.2,0.3l0,0l1.1,0.3l0,0l1.2,0.3l0,0l1.2,0.3l0,0l0.9,0.2l0.8-0.1l0.6-0.5l0.2-0.7l-0.3-0.7l-0.6-0.4
			l-0.1,0l-0.9-0.2l-1.1-0.3h0h0l-1.1-0.3l-1.1-0.3v0l0,0l-1.1-0.3l-1.1-0.4l-1.1-0.4l0,0l0,0l-1.1-0.4l-1.1-0.4h0l0,0l-1.1-0.4l0,0
			l-1.1-0.4l0,0l-1.1-0.4l0,0h0l-1.1-0.4v0l0,0l-1.1-0.5l0,0l0,0l-1.1-0.5l0,0l0,0l-1-0.5l0,0l-1.1-0.5l-1-0.5l-1-0.5l0,0l0,0
			l-1-0.5l0,0v0l-1-0.5l0,0l-1-0.6l-1-0.6l-1-0.6l-1-0.6l0,0l0,0l-0.6-0.4l-0.7-0.2L-3675.7,640.6z"/>
		<path id="path40842-9-5-7-4-4-8-4-2-6-9-5-4-1-0-1-8-7-9" inkscape:connector-curvature="0" class="st3" d="M-3587.8,651
			L-3587.8,651l-0.6,0.3l-1.1,0.4l0,0l-1.1,0.4l-1.1,0.4l0,0l-1.1,0.4l-1.1,0.4l-1.1,0.4v0h0l-1.1,0.4l-1.1,0.3h0l-1.1,0.3h0
			l-1.1,0.3h0l0,0l-1.1,0.3l0,0h0l-1.1,0.3l-1.1,0.3v0h0l-1.1,0.3l-1.1,0.3l0,0h0l-1.1,0.2l-1.1,0.2h0v0l-1.1,0.2h0l-1.1,0.2h0v0
			l-1.1,0.2v0h0l-1.1,0.2l0,0v0l-1.2,0.2l-1.2,0.1l-1.2,0.1l0,0h0l-1,0.1l-0.7,0.3l-0.4,0.7l0.1,0.8l0.5,0.6l0.7,0.2l0.1,0l1-0.1h0
			l1.2-0.1h0l1.2-0.2h0l1.2-0.2h0l1.2-0.2h0l1.2-0.2h0l1.2-0.2h0l1.2-0.2h0l1.2-0.2h0l1.2-0.2h0l1.2-0.3h0l1.2-0.3h0l1.2-0.3h0
			l1.1-0.3h0l1.1-0.3h0l1.1-0.3h0l1.1-0.3h0l1.1-0.4l0,0l1.1-0.4l0,0l1.1-0.4l0,0l1.1-0.4l0,0l1.1-0.4l0,0l1.1-0.4l0,0l1.1-0.4l0,0
			l1.1-0.4l0,0l0.5-0.2l0.6-0.5l0.2-0.7l-0.3-0.7l-0.6-0.4L-3587.8,651z"/>
		<path id="path40840-1-2-2-3-1-7-3-1-4-1-8-8-6-1-3-1-2-1" inkscape:connector-curvature="0" class="st3" d="M-3650.8,646.6
			l-0.6,0.5l-0.2,0.7l0.2,0.7l0.6,0.5l0.1,0l0.1,0l0,0l1.1,0.3l0,0l1.1,0.3l0,0l1.1,0.3h0l1.1,0.3h0l1.1,0.3h0l1.1,0.2h0l1.1,0.2h0
			l1.1,0.2h0l1.1,0.2h0l1.1,0.2h0l1.1,0.2h0l1.1,0.1h0l1.1,0.1h0l1.1,0.1h0l1.1,0.1h0l1.1,0.1h0l1.1,0.1h0l1.1,0.1h0l1.1,0h0l1.1,0
			l0,0l1.1,0l0,0l1.1,0l0,0l1.1,0l0,0l1.1,0l0,0l1.1,0l0,0l1.1,0h0l1.1-0.1h0h0l0.7-0.3l0.4-0.6l0-0.8l-0.5-0.6l-0.7-0.2h-0.1v0l0,0
			l0,0l-1.1,0.1l-1.1,0v0l0,0l-1.1,0l-1.1,0v0l0,0l-1.1,0l-1.1,0l0,0l0,0l-1.1,0l0,0v0l-1.1,0l-1.1,0h0v0l-1.1-0.1l-1.1-0.1h0v0
			l-1.1-0.1l-1.1-0.1l0,0h0l-1.1-0.1l-1.1-0.1v0h0l-1.1-0.1v0l-1.1-0.2l-1.1-0.2h0v0l-1.1-0.2l-1.1-0.2l0,0l0,0l-1.1-0.2l-1.1-0.2v0
			h0l-1.1-0.2h0v0l-1.1-0.3l-1.1-0.3h0v0l-1.1-0.3l-1.1-0.3h0h0l-0.1,0L-3650.8,646.6z"/>
		<path id="path40573-4-3-2-7-1-4-4-8-7-2-9-7-4-2-7-3-2-3-9" inkscape:connector-curvature="0" class="st3" d="M-3675.3,646.1
			l-0.4,0.6l0,0.8l0.5,0.6l0.1,0l0.4,0.2l0,0l0.9,0.5l0,0l0.9,0.5l0,0l0.9,0.5l0,0l0.9,0.5l0,0l0.9,0.5l0,0l0.9,0.4l0,0l0.9,0.4l0,0
			l0.9,0.4l0,0l0.9,0.4l0,0l0.9,0.4l0,0l0.9,0.4l0,0l0.9,0.4l0,0l0.9,0.4l0,0l0.9,0.4l0,0l0.9,0.4l0,0l0.9,0.4l0,0l0.9,0.3l0,0
			l0.9,0.3l0,0l1,0.3l0,0l1,0.3l0,0l1,0.3l0,0l1,0.3l0,0l1,0.3l0,0l1.2,0.3l0,0l1.2,0.3l0,0l1.2,0.3h0l1.2,0.3h0l1.2,0.3h0l0.3,0.1
			l0.8-0.1l0.6-0.5l0.2-0.7l-0.3-0.7l-0.6-0.4l-0.1,0l-0.3-0.1l0,0l-1.2-0.3h0v0l-1.2-0.3l-1.2-0.3h0h0l-1.2-0.3l-1.2-0.3l0,0
			l-0.9-0.3l0,0l-0.9-0.3h0l0,0l-0.9-0.3l0,0l-0.9-0.3h0l0,0l-0.9-0.3l0,0l-0.9-0.3l-0.9-0.3l0,0h0l-0.9-0.3l-0.9-0.4l-0.9-0.4h0
			l0,0l-0.9-0.4l0,0l-0.9-0.4l0,0l-0.9-0.4l0,0h0l-0.9-0.4v0l0,0l-0.9-0.4l0,0l-0.9-0.4l0,0v0l-0.9-0.4l0,0l-0.9-0.4l-0.9-0.4l0,0
			l-0.9-0.5l0,0l-0.9-0.5l0,0l-0.9-0.5l0,0l-0.9-0.5v0l0,0l-0.4-0.2l-0.7-0.2L-3675.3,646.1z"/>
	</g>
</g>
</svg>
